<?xml version="1.0" encoding="UTF-8"?>
<svg version="1.1" xmlns="http://www.w3.org/2000/svg" width="1254" height="1254">
<path d="M0 0 C413.82 0 827.64 0 1254 0 C1254 413.82 1254 827.64 1254 1254 C840.18 1254 426.36 1254 0 1254 C0 840.18 0 426.36 0 0 Z " fill="#F9F9F9" transform="translate(0,0)"/>
<path d="M0 0 C1.08639293 -0.00301597 2.17278585 -0.00603194 3.29209977 -0.0091393 C5.06974899 -0.00648509 5.06974899 -0.00648509 6.88331032 -0.00377727 C8.15400767 -0.0058299 9.42470502 -0.00788253 10.73390836 -0.00999737 C14.26981501 -0.01556031 17.80569742 -0.01489228 21.34160705 -0.01321978 C25.18522298 -0.01248865 29.02883209 -0.01751169 32.87244511 -0.0217948 C40.49981102 -0.02937593 48.12716994 -0.03156792 55.75453923 -0.03212385 C64.88909161 -0.03303738 74.02363753 -0.03970462 83.15818713 -0.04647068 C105.23717038 -0.06253436 127.31615294 -0.06843441 149.39514099 -0.07321942 C159.83943483 -0.07555503 170.28372811 -0.07915765 180.72802152 -0.0829148 C216.47788867 -0.09575072 252.2277555 -0.10646981 287.97762489 -0.1099174 C290.22201222 -0.11013904 292.46639955 -0.11036082 294.71078688 -0.11058275 C296.96060598 -0.11080339 299.21042508 -0.11102388 301.46024418 -0.1112442 C305.9737943 -0.11168676 310.48734442 -0.11213387 315.00089455 -0.11258388 C316.11999346 -0.11269327 317.23909238 -0.11280266 318.39210339 -0.11291536 C354.67901627 -0.116546 390.96590918 -0.13246611 427.25281441 -0.15577424 C465.61471676 -0.18037016 503.97660768 -0.19409013 542.33851814 -0.19528532 C546.54972776 -0.19545678 550.76093737 -0.1956722 554.97214699 -0.19591975 C556.00907007 -0.19597552 557.04599316 -0.19603129 558.11433816 -0.19608875 C574.80175733 -0.19723941 591.48915601 -0.20826276 608.17656826 -0.22280681 C624.95007195 -0.23717308 641.72354935 -0.24040805 658.4970575 -0.23236683 C668.4611038 -0.22791117 678.42506528 -0.23176865 688.38910043 -0.24760534 C695.04850905 -0.25736023 701.70785828 -0.2561722 708.36726636 -0.24616911 C712.15927602 -0.24078077 715.95112287 -0.24005496 719.743119 -0.25267783 C723.835847 -0.26618768 727.9281967 -0.25629051 732.02092934 -0.2442863 C733.18729949 -0.25188149 734.35366964 -0.25947669 735.55538434 -0.26730204 C756.44015845 -0.135206 774.81161545 7.55974521 790.45548439 21.1276505 C791.60210548 22.11184972 791.60210548 22.11184972 792.77189064 23.11593175 C806.82308773 36.0919068 815.78786152 56.45429247 816.73818398 75.43806386 C816.89339411 80.36104867 816.88460268 85.28330918 816.87540627 90.20821691 C816.88276228 92.08914239 816.89135292 93.97006338 816.90107155 95.85097814 C816.92313897 100.92161877 816.92622555 105.99209619 816.92432404 111.06277823 C816.92420361 115.31649188 816.93279735 119.57017185 816.94110155 123.82387602 C816.96028387 133.87291134 816.96323892 143.92186362 816.95646095 153.97091222 C816.94982953 164.28764226 816.97266045 174.60401393 817.00977468 184.92067134 C817.04061623 193.8214256 817.05181597 202.72206547 817.04793787 211.62287199 C817.04588464 216.91967605 817.05112603 222.21620125 817.07583046 227.512954 C817.09833445 232.50206804 817.09602637 237.49060588 817.07590294 242.47972417 C817.07253386 244.29352968 817.07740082 246.10737581 817.09188652 247.9211266 C817.27528923 272.62187077 810.42542919 296.65566487 792.89298439 314.776088 C776.75659032 330.04148353 758.32688425 337.48590544 736.2247715 337.35470128 C734.92623238 337.35499333 733.62769325 337.35528539 732.28980446 337.35558629 C728.75526967 337.35615645 725.22087264 337.34445724 721.68636966 337.33043838 C717.98283332 337.31787436 714.27929327 337.31675607 710.57573891 337.31438756 C703.57427168 337.30818937 696.57286746 337.29180121 689.57142788 337.27168858 C681.59556361 337.24927767 673.61969621 337.23832313 665.64380825 337.22829771 C649.24766351 337.20743337 632.85158201 337.17228995 616.45548439 337.1276505 C616.45700327 338.08396145 616.45852215 339.0402724 616.46008706 340.02556247 C616.54980094 396.7345157 616.61826218 453.44346295 616.65974571 510.15247288 C616.66473479 516.9652438 616.66992104 523.77801457 616.67521095 530.59078526 C616.67573399 531.26871579 616.67625703 531.94664631 616.67679591 532.64512018 C616.69382271 554.59463934 616.72385401 576.54411714 616.76067327 598.49361127 C616.79953294 621.70178791 616.82348092 644.90993999 616.83183837 668.11815149 C616.83732023 682.01265149 616.85461936 695.90703272 616.88715026 709.80149616 C616.90833319 719.33613793 616.91467587 728.87071851 616.9094899 738.40538209 C616.90693403 743.90211781 616.91078568 749.39864632 616.93230629 754.89534497 C616.95190219 759.93751282 616.95267048 764.97933589 616.93907997 770.02152026 C616.93740255 771.8360842 616.94236558 773.65067046 616.95501712 775.46519106 C617.05049857 790.01731529 615.74862709 804.68755575 608.58048439 817.6901505 C608.05950172 818.6801505 608.05950172 818.6801505 607.52799416 819.6901505 C604.92430316 824.53199705 602.03588902 828.94733765 598.45548439 833.1276505 C597.97079689 833.76573644 597.48610939 834.40382237 596.98673439 835.06124425 C586.48582662 848.26459152 569.73741211 856.09513739 553.45548439 859.1276505 C548.21378713 859.63990822 543.00504314 859.67090324 537.74393654 859.63558507 C536.21962374 859.64020666 534.69531541 859.64656794 533.17101622 859.65449405 C529.02656079 859.67103802 524.88247851 859.66300994 520.73802257 859.65054917 C516.25122537 859.64143913 511.76448904 859.65549772 507.27770424 859.66646886 C498.5055539 859.68419554 489.73354095 859.68044028 480.96138537 859.6688183 C473.82799319 859.65976112 466.69463934 859.65856983 459.56124306 859.66291356 C458.54349795 859.66352649 457.52575285 859.66413943 456.47716698 859.66477093 C454.40922295 859.66604992 452.34127893 859.66734677 450.27333492 859.6686613 C430.91140561 859.68004996 411.54955222 859.66698033 392.18763536 859.64545983 C375.59735563 859.62759042 359.00718788 859.63069501 342.41691017 859.64913487 C323.12122713 859.67057191 303.82561053 859.67895148 284.52991724 859.66668582 C282.46985341 859.66541171 280.40978957 859.66415422 278.34972572 859.66291356 C277.33630453 859.66229646 276.32288334 859.66167936 275.27875242 859.66104355 C268.15923592 859.65759915 261.03976178 859.66339933 253.92025185 859.67283177 C245.2363323 859.68408467 236.55255726 859.68094279 227.86865413 859.6597088 C223.44342851 859.64924251 219.01844326 859.64500048 214.59321976 859.65830541 C210.53303824 859.67032759 206.47331726 859.66350726 202.41317683 859.6423952 C200.95374939 859.63797033 199.49428208 859.64010129 198.03488082 859.64989835 C184.72324473 859.73232266 172.30322121 857.46296768 160.58048439 850.8776505 C159.86634377 850.48561437 159.15220314 850.09357823 158.41642189 849.68966222 C152.74480729 846.4825608 147.89621242 842.92891289 143.45548439 838.1276505 C142.71169533 837.34132237 141.96790627 836.55499425 141.20157814 835.744838 C125.41647014 817.8497071 121.81289486 796.82216619 121.97446632 773.68950963 C121.97271742 771.79718813 121.9692067 769.90486759 121.96410966 768.01255214 C121.95524837 762.86537717 121.97105017 757.71854088 121.9912219 752.57140899 C122.00861141 747.00112206 122.00264212 741.43085186 121.99961281 735.8605454 C121.99752267 726.22710633 122.00999639 716.59377624 122.03256416 706.96036458 C122.06517135 693.03235055 122.07550008 679.10438883 122.08051613 665.17634077 C122.08925514 642.57511722 122.11579823 619.97395641 122.15372658 597.37276769 C122.19051208 575.42713271 122.21882307 553.48151329 122.23575783 531.53585362 C122.23654698 530.51971167 122.23654698 530.51971167 122.23735208 529.4830416 C122.24262653 522.6795279 122.24772973 515.87601409 122.25270752 509.07250017 C122.29441414 452.09084302 122.3649462 395.1092497 122.45548439 338.1276505 C121.8129437 338.12949409 121.170403 338.13133767 120.50839138 338.13323712 C104.8232064 338.17754105 89.13804341 338.21056753 73.45281124 338.23127484 C65.86733493 338.2415567 58.28190056 338.25555742 50.69645119 338.27852941 C44.07957386 338.29855847 37.46272693 338.31138935 30.84582013 338.31582749 C27.34712754 338.31841887 23.84852187 338.3244441 20.34985733 338.33911061 C16.42972839 338.35540832 12.50968196 338.35562414 8.58951759 338.35470128 C7.44871239 338.36189183 6.30790718 338.36908238 5.13253212 338.37649083 C-18.4682158 338.31676869 -37.41461541 330.69206733 -54.54451561 314.5651505 C-72.79339885 295.86217375 -78.19236653 271.83256264 -78.04622459 246.50362706 C-78.05001846 244.60105039 -78.05552721 242.69847649 -78.06259727 240.79590917 C-78.07642621 235.68244956 -78.06547311 230.56933115 -78.04888606 225.45589089 C-78.03491926 220.07684251 -78.04150846 214.69781161 -78.04501915 209.31875157 C-78.04771122 200.29454679 -78.03432918 191.27047578 -78.01106834 182.24630284 C-77.98443272 171.84140195 -77.98272558 161.43672408 -77.99445671 151.03180075 C-78.00526547 140.97936877 -77.99902521 130.92701676 -77.98490143 120.87459111 C-77.97917172 116.61495355 -77.97920033 112.3553751 -77.98396683 108.09573674 C-77.98876762 103.07551004 -77.97850745 98.05552515 -77.95701218 93.03534436 C-77.95148736 91.20248344 -77.95093897 89.36959908 -77.95596504 87.53673673 C-78.01648051 62.28734985 -70.12409845 40.99944999 -52.35701561 22.81124425 C-38.39900801 9.49297866 -19.56871597 0.01080586 0 0 Z " fill="#040404" transform="translate(257.5445156097412,197.87234950065613)"/>
<path d="M0 0 C139.92 0 279.84 0 424 0 C424 185.46 424 370.92 424 562 C418.06 563.32 412.12 564.64 406 566 C384.03118504 573.89171023 367.95025526 588.94920371 358 610 C355.44190533 616.66721801 354.01201499 622.91589506 353 630 C259.94 630 166.88 630 71 630 C69.68 624.39 68.36 618.78 67 613 C65.82205149 609.95366677 64.78069962 607.3677461 63.25 604.5625 C62.90565918 603.90693115 62.56131836 603.2513623 62.20654297 602.57592773 C52.28809468 584.26581367 37.05986831 575.02993416 19 566 C9.595 564.515 9.595 564.515 0 563 C0 377.21 0 191.42 0 0 Z " fill="#F9F9F8" transform="translate(415,348)"/>
<path d="M0 0 C1.27383917 -0.00380567 2.54767833 -0.00761134 3.86011869 -0.01153234 C7.40019129 -0.02181423 10.94016393 -0.01965824 14.48024498 -0.01547697 C18.33008311 -0.01311178 22.17989663 -0.0222785 26.02972543 -0.02996117 C32.77865814 -0.0418116 39.5275638 -0.0461738 46.27650642 -0.04563999 C56.31264188 -0.04484707 66.34874318 -0.05539342 76.38486951 -0.06805556 C96.3972386 -0.09280223 116.4095994 -0.10157904 136.42198169 -0.10659205 C137.97680568 -0.10698381 137.97680568 -0.10698381 139.56304026 -0.10738349 C140.60165748 -0.10764376 141.64027471 -0.10790404 142.71036519 -0.1081722 C154.21675296 -0.11125372 165.72313843 -0.1177582 177.22952461 -0.12438488 C211.97899895 -0.14403341 246.7284708 -0.16043744 281.47795105 -0.16326141 C282.58957201 -0.16335547 283.70119298 -0.16344954 284.84649942 -0.16354645 C289.35147272 -0.16392493 293.85644602 -0.16428893 298.36141932 -0.16464943 C301.75219385 -0.16492115 305.14296838 -0.16519782 308.5337429 -0.16547489 C309.65418454 -0.16556291 310.77462617 -0.16565094 311.92902058 -0.16574163 C347.13452563 -0.16864712 382.33997578 -0.19074301 417.54546165 -0.22699833 C457.09013793 -0.26772111 496.63477679 -0.29141995 536.17947519 -0.29172093 C540.39598744 -0.29181775 544.61249967 -0.29198447 548.82901192 -0.29220104 C549.86723908 -0.29224516 550.90546624 -0.29228927 551.97515483 -0.29233472 C568.68597745 -0.29345477 585.3967451 -0.31086643 602.10755002 -0.33402036 C618.90221252 -0.35685883 635.69680071 -0.36109073 652.49147303 -0.34647106 C662.46912091 -0.33831752 672.44653476 -0.34401793 682.42415427 -0.36965191 C689.09131727 -0.38539878 695.75831406 -0.3829314 702.42547306 -0.36574518 C706.22279646 -0.35646904 710.019669 -0.35499204 713.81695731 -0.37571125 C717.91378137 -0.39787423 722.00955098 -0.38110594 726.10638428 -0.36076355 C727.27669994 -0.37332692 728.4470156 -0.3858903 729.65279537 -0.39883438 C743.07627846 -0.25615446 753.47610178 4.732916 763.10259056 13.84209347 C774.98620034 26.43014404 775.73134799 41.78740181 775.70537376 58.05791378 C775.70972604 59.86078762 775.7149109 61.66365962 775.72086143 63.46652889 C775.73420919 68.34483339 775.73483467 73.22306021 775.73229814 78.10137939 C775.73122527 82.18400622 775.73612001 86.26661753 775.74090356 90.34924102 C775.75198477 99.98798368 775.75244436 109.62668737 775.74638939 119.26543331 C775.7403541 129.18391595 775.75265253 139.10225658 775.77395946 149.020715 C775.7916194 157.55776851 775.79756979 166.09477701 775.79432172 174.6318481 C775.79251526 179.72107574 775.79508084 184.81020213 775.80903625 189.89941311 C775.82168116 194.68969501 775.81960792 199.47975693 775.80662537 204.27003574 C775.80427424 206.01904598 775.80694117 207.76807201 775.81524849 209.51706409 C775.88855125 226.16214301 774.1528151 242.39456039 762.24321556 255.13506222 C757.25764984 259.78204962 750.49757133 265.26006222 743.43071556 265.26006222 C743.43071556 265.92006222 743.43071556 266.58006222 743.43071556 267.26006222 C740.8553964 268.5477218 739.02554408 268.38303287 736.14101219 268.38031673 C735.01918037 268.3816914 733.89734856 268.38306606 732.74152184 268.38448238 C731.50506416 268.38088711 730.26860649 268.37729183 728.9946804 268.37358761 C727.69716347 268.37373363 726.39964653 268.37387966 725.0628109 268.37403011 C721.49897964 268.37431772 717.93518185 268.36842696 714.37135839 268.36145616 C710.64909057 268.35521646 706.92682203 268.35461833 703.20454979 268.35343075 C696.15328988 268.35031925 689.10204543 268.34210831 682.05079234 268.33208126 C672.52427447 268.3188276 662.9977524 268.31341875 653.47122765 268.30757904 C638.45771204 268.2981683 623.44422904 268.27824817 608.43071556 268.26006222 C608.43071556 244.17006222 608.43071556 220.08006222 608.43071556 195.26006222 C642.99321556 195.07256222 642.99321556 195.07256222 653.87431908 195.05229855 C657.11549665 195.02239188 657.11549665 195.02239188 660.35660362 194.98593807 C661.79124244 194.97292798 663.22599006 194.96958333 664.66068077 194.97409725 C674.06863628 195.29520229 674.06863628 195.29520229 682.68047142 192.15337276 C688.40880546 186.12705348 690.03059524 181.51010025 689.96416283 173.42241573 C689.9727784 172.56617611 689.98139397 171.70993649 689.99027061 170.82775021 C690.01286009 168.01451006 690.00620458 165.20227181 689.99712181 162.38896847 C690.00236065 160.42273318 690.00863808 158.45650041 690.01590538 156.49027157 C690.02629675 152.37557276 690.02176643 148.26122005 690.00713158 144.14653683 C689.98994909 138.88625469 690.01343926 133.62706544 690.04862118 128.36690521 C690.07063339 124.30810023 690.06914437 120.24955518 690.06085587 116.19070911 C690.06003838 114.25192154 690.06686286 112.3131145 690.08162689 110.37438297 C690.09914302 107.65794959 690.08447239 104.94346019 690.06181908 102.22710323 C690.07351128 101.43464703 690.08520348 100.64219082 690.09724998 99.82572079 C689.99887513 93.99705935 688.38640582 89.61639808 684.43071556 85.26006222 C679.09925981 80.7131883 674.68673694 80.69152235 667.84180355 80.75390434 C666.76992549 80.74779098 665.69804743 80.74167762 664.59368822 80.73537901 C660.98328092 80.71971419 657.37353914 80.73267201 653.76312828 80.74539852 C651.15606096 80.74007616 648.54899671 80.73301228 645.94193834 80.72435147 C640.26405743 80.70835463 634.5863247 80.70727831 628.9084301 80.71594906 C620.46526026 80.72880813 612.02222466 80.71886741 603.57906289 80.70444951 C588.50041312 80.67949545 573.42182608 80.67763083 558.34316167 80.68572362 C545.14709751 80.69279152 531.95105773 80.69285859 518.75499344 80.68586063 C516.9861103 80.68494931 515.21722717 80.68403855 513.44834403 80.68312835 C510.78292439 80.68174524 508.11750476 80.68035415 505.45208513 80.67894221 C480.66569106 80.66595797 455.87930516 80.66085146 431.09290981 80.67247581 C430.15821475 80.67291379 429.22351969 80.67335176 428.26050054 80.673803 C420.66971225 80.67740997 413.07892407 80.68124467 405.48813589 80.68509393 C375.87496746 80.69994287 346.26189124 80.69116143 316.64873314 80.66313839 C283.39052249 80.63172633 250.13236644 80.6167354 216.87414068 80.6269384 C213.32951161 80.62797521 209.78488254 80.62896243 206.24025345 80.62992191 C205.36745331 80.6301708 204.49465317 80.63041969 203.59540454 80.63067611 C190.40733618 80.63411938 177.21931596 80.62479788 164.03125763 80.60915089 C149.03707694 80.59140211 134.04301359 80.59122072 119.04883797 80.61450254 C110.6540587 80.62702489 102.25954887 80.62571427 93.86478527 80.60462168 C87.60345622 80.59043407 81.34243405 80.60227004 75.08113378 80.62441862 C72.54284921 80.62932589 70.00453159 80.62572165 67.46627451 80.61293118 C64.02549987 80.59683876 60.5861769 80.61131423 57.14546871 80.63364983 C56.15162657 80.62165815 55.15778444 80.60966647 54.13382587 80.59731141 C47.59569043 80.68443815 44.33441268 81.87778427 39.43071556 86.26006222 C35.37686599 91.36187108 34.85337642 95.92713715 34.92900658 102.31304073 C34.92360359 103.19200008 34.91820061 104.07095943 34.9126339 104.97655392 C34.90018836 107.86437436 34.91660843 110.75118976 34.93462181 113.63896847 C34.93446674 115.65483305 34.93297642 117.67069794 34.93021202 119.68656063 C34.92882994 123.90382279 34.94135532 128.12074405 34.96416283 132.33794308 C34.99256495 137.73719622 34.98980253 143.13588403 34.97707272 148.53517914 C34.97011075 152.69510362 34.97791047 156.85489794 34.99032974 161.01480579 C34.99483791 163.00546869 34.9951866 164.99614559 34.99126434 166.98680973 C34.98834661 169.770323 35.00488544 172.55306283 35.02666283 175.33647823 C35.02216118 176.15482647 35.01765953 176.97317471 35.01302147 177.81632137 C35.09484381 184.12625043 36.60199398 188.19688916 40.86821556 193.01006222 C45.29871315 196.90025523 48.22240426 197.5133032 54.12700462 197.57890987 C54.80151539 197.58906313 55.47602615 197.59921638 56.17097664 197.60967731 C58.34609277 197.64021986 60.52107864 197.65744242 62.69634056 197.67412472 C64.04254334 197.69106638 65.38873539 197.70888381 66.73491478 197.72759151 C71.71672528 197.79069181 76.69873868 197.83685543 81.68071556 197.88506222 C98.38696556 198.07068722 98.38696556 198.07068722 115.43071556 198.26006222 C115.43071556 221.36006222 115.43071556 244.46006222 115.43071556 268.26006222 C83.48384377 268.38097132 83.48384377 268.38097132 70.06352806 268.40654659 C60.80891985 268.42432519 51.55439377 268.4451891 42.29985619 268.48638058 C35.55885404 268.51637002 28.81791873 268.53565779 22.07685173 268.5423277 C18.51058032 268.54622388 14.94450006 268.55532059 11.37829018 268.57725239 C7.3880309 268.60159087 3.3980997 268.60202612 -0.59223366 268.60063839 C-2.34767242 268.61681713 -2.34767242 268.61681713 -4.1385746 268.63332272 C-17.00701424 268.58504153 -27.28080754 264.94116604 -36.86615944 256.15459347 C-45.0540912 247.45876369 -49.88253087 237.13224321 -49.8434391 225.14040279 C-49.84867578 224.33928322 -49.85391246 223.53816365 -49.85930783 222.71276772 C-49.87427098 220.03691256 -49.87501217 217.36124926 -49.87568092 214.68535519 C-49.88330504 212.7630751 -49.89173297 210.84079807 -49.9009037 208.91852474 C-49.92283432 203.70129265 -49.93164602 198.48411916 -49.93673015 193.26684618 C-49.94037628 190.00395897 -49.94661777 186.74108705 -49.95373154 183.47820568 C-49.97822381 172.08517185 -49.99127686 160.69218352 -49.99482155 149.29912472 C-49.99845369 138.69612913 -50.02832671 128.09342355 -50.07022613 117.49051654 C-50.10497815 108.3751991 -50.12037086 99.25997752 -50.12106758 90.14459431 C-50.1218589 84.7059509 -50.13053055 79.26760282 -50.15906525 73.82902813 C-50.18532901 68.70874441 -50.1874047 63.58899908 -50.17140961 58.46867847 C-50.16960156 56.59668518 -50.17622721 54.72466034 -50.19222832 52.85273457 C-50.31583981 37.44360153 -47.46881619 24.70725746 -36.53803444 13.10381222 C-25.6832638 2.86057795 -14.5321729 -0.04693031 0 0 Z " fill="#F8F8F8" transform="translate(264.5692844390869,232.7399377822876)"/>
<path d="M0 0 C1.63388672 0.50080078 1.63388672 0.50080078 3.30078125 1.01171875 C21.30887781 6.82407155 36.92599204 18.14848945 50.703125 30.89453125 C52.75298754 32.77357191 54.85686998 34.54227461 57 36.3125 C62.32420043 40.95907492 66.6486407 46.46386465 71 52 C71.59554688 52.75667969 72.19109375 53.51335938 72.8046875 54.29296875 C91.84302464 80.02660628 101.64980187 111.33659306 101.39111328 143.21166992 C101.37497924 145.56552804 101.39110499 147.91767634 101.41015625 150.27148438 C101.42999348 164.05342435 99.07995335 176.84211019 95.4375 190.125 C95.22931641 190.90875 95.02113281 191.6925 94.80664062 192.5 C93.67381782 196.71878836 92.43147666 200.87048668 91 205 C90.34 205 89.68 205 89 205 C88.92136719 205.64710938 88.84273437 206.29421875 88.76171875 206.9609375 C83.66082282 227.31220433 66.4769754 247.44952923 51 261 C50.39945801 261.52754883 49.79891602 262.05509766 49.18017578 262.59863281 C32.37112572 277.03856399 11.30388528 288.25571913 -10.375 293.125 C-11.02726563 293.28097656 -11.67953125 293.43695312 -12.3515625 293.59765625 C-24.76807719 296.46482853 -36.86814217 297.40928714 -49.5625 297.375 C-50.75345779 297.37368576 -50.75345779 297.37368576 -51.96847534 297.37234497 C-92.69140198 297.22428768 -127.59371609 279.8370207 -156.14941406 251.22119141 C-166.02798538 241.06152253 -173.40556319 229.50964662 -180 217 C-180.50660156 216.05979004 -180.50660156 216.05979004 -181.0234375 215.10058594 C-199.87198375 179.68870252 -201.34048514 136.57086111 -190.44140625 98.53125 C-188.25996576 91.40025898 -185.29452574 84.67877905 -182 78 C-181.6812793 77.35015137 -181.36255859 76.70030273 -181.03417969 76.03076172 C-176.75899557 67.42285112 -171.95684544 59.57419162 -166 52 C-165.33613281 51.13246094 -164.67226563 50.26492188 -163.98828125 49.37109375 C-147.23458781 28.09607084 -124.76212862 10.0490631 -99 1 C-98.31212402 0.75797852 -97.62424805 0.51595703 -96.91552734 0.26660156 C-64.81328544 -10.86290934 -32.24142235 -11.13642919 0 0 Z " fill="#6AB513" transform="translate(675,495)"/>
<path d="M0 0 C4.30422435 3.07444596 7.71223294 6.48541378 8.625 11.875 C8.71169889 13.8913954 8.74269534 15.91045681 8.73852539 17.92871094 C8.73841209 19.76015656 8.73841209 19.76015656 8.73829651 21.62860107 C8.73313522 22.94225647 8.72797394 24.25591187 8.72265625 25.609375 C8.72079021 26.9712926 8.71936718 28.33321088 8.71836853 29.69512939 C8.71455803 33.27241889 8.70474032 36.84966752 8.69366455 40.42694092 C8.68341884 44.08019457 8.67886415 47.73345486 8.67382812 51.38671875 C8.66311669 58.54949776 8.64605794 65.71224314 8.625 72.875 C9.3633609 72.86611755 10.1017218 72.85723511 10.86245728 72.8480835 C17.83595089 72.76778741 24.80937501 72.70695943 31.78321266 72.66775131 C35.36820901 72.64691577 38.95282194 72.61867349 42.53759766 72.57324219 C46.0000419 72.52963808 49.46211841 72.50583257 52.92481613 72.49549103 C54.88242482 72.48455179 56.83988648 72.45334872 58.79727173 72.42181396 C69.84346142 72.4190347 69.84346142 72.4190347 74.625 76.875 C77.27763545 79.742714 79.1640297 81.95675242 79.625 85.875 C79.74875 86.90625 79.8725 87.9375 80 89 C79.49252898 94.24386718 77.94865069 98.74120945 74.625 102.875 C67.55804297 107.45198193 61.42185928 107.40465565 53.15625 107.265625 C51.88019897 107.25996521 50.60414795 107.25430542 49.28942871 107.24847412 C45.92217342 107.22995798 42.55603409 107.19412089 39.18908691 107.1496582 C35.74334272 107.10849431 32.29748252 107.09041842 28.8515625 107.0703125 C22.10907056 107.02633118 15.3670996 106.95948218 8.625 106.875 C8.63388245 107.5963916 8.64276489 108.3177832 8.6519165 109.06103516 C8.7323374 115.88674187 8.79310344 122.71237702 8.83224869 129.53843689 C8.85305108 133.04715319 8.88123163 136.55547533 8.92675781 140.06396484 C8.97886357 144.10517993 8.99800577 148.14598629 9.015625 152.1875 C9.03627014 153.4367627 9.05691528 154.68602539 9.07818604 155.97314453 C9.08016423 163.70339833 8.57822804 169.58650286 3.11871338 175.5090332 C-0.95167481 179.23131031 -5.68692366 179.25761925 -10.9453125 179.1171875 C-15.17620785 178.69545838 -18.00361208 177.45135079 -20.8125 174.22265625 C-24.30974818 169.52322901 -25.50113967 166.03450453 -25.48852539 160.1184082 C-25.48841209 158.34691154 -25.48841209 158.34691154 -25.48829651 156.53962708 C-25.48313522 155.26455795 -25.47797394 153.98948883 -25.47265625 152.67578125 C-25.4712413 151.37045944 -25.46982635 150.06513763 -25.46836853 148.72026062 C-25.4645538 145.25310344 -25.45473244 141.78598826 -25.44366455 138.31884766 C-25.43342798 134.77962818 -25.4288661 131.2404019 -25.42382812 127.70117188 C-25.41310923 120.75909735 -25.39604534 113.81705069 -25.375 106.875 C-26.46708015 106.88499275 -26.46708015 106.88499275 -27.58122253 106.89518738 C-34.452054 106.95536999 -41.32284591 107.00101074 -48.19387341 107.03043652 C-51.72612466 107.04607343 -55.25815759 107.06727501 -58.7902832 107.10131836 C-62.85369937 107.14023603 -66.91688721 107.15472547 -70.98046875 107.16796875 C-72.87758858 107.19119453 -72.87758858 107.19119453 -74.81303406 107.21488953 C-75.99388077 107.21511612 -77.17472748 107.21534271 -78.39135742 107.21557617 C-79.42838303 107.22223801 -80.46540863 107.22889984 -81.53385925 107.23576355 C-86.42099231 106.61520314 -89.54243495 104.07407806 -92.625 100.375 C-93.12515625 99.7871875 -93.6253125 99.199375 -94.140625 98.59375 C-96.89327397 94.76094764 -96.95670725 90.40746895 -96.375 85.875 C-94.32085825 79.70141094 -91.14010061 76.1556824 -85.57989502 72.78762817 C-82.79401102 71.63452283 -80.61043093 71.63484595 -77.59667969 71.64794922 C-75.85532745 71.64817581 -75.85532745 71.64817581 -74.07879639 71.64840698 C-72.83076233 71.65872955 -71.58272827 71.66905212 -70.296875 71.6796875 C-68.37430878 71.68393234 -68.37430878 71.68393234 -66.41290283 71.68826294 C-63.01310361 71.69588212 -59.61347654 71.71551566 -56.21374512 71.7376709 C-52.74147876 71.75816642 -49.26918447 71.76727256 -45.796875 71.77734375 C-38.98951283 71.79876334 -32.18226469 71.83287844 -25.375 71.875 C-25.38610306 71.12855225 -25.39720612 70.38210449 -25.40864563 69.61303711 C-25.50915227 62.55186648 -25.58511835 55.49094681 -25.63406086 48.42926025 C-25.66006975 44.79937026 -25.69530459 41.17007508 -25.75219727 37.54052734 C-25.80683357 34.03266623 -25.83648592 30.52537439 -25.84938622 27.01712036 C-25.86301615 25.03848473 -25.90199905 23.06007571 -25.94148254 21.08178711 C-25.9437654 13.70309733 -25.38887857 8.50813031 -20.375 2.875 C-14.60908061 -2.6163518 -7.24674649 -2.41558216 0 0 Z " fill="#FBFCF9" transform="translate(635.375,552.125)"/>
<path d="M0 0 C11.86372994 1.33451658 21.69075539 6.34523096 29.3671875 15.6640625 C36.70335395 26.1593437 39.3013484 36.27695013 39.390625 48.8203125 C39.55852289 53.96918099 40.66325065 56.87668727 44 61 C48.41769451 64.98669992 51.46476402 66.12384699 57.34994221 66.13142776 C59.02538151 66.13718948 59.02538151 66.13718948 60.73466808 66.1430676 C61.96694029 66.14220112 63.1992125 66.14133463 64.46882629 66.14044189 C66.42642625 66.14489858 66.42642625 66.14489858 68.42357367 66.1494453 C72.05371949 66.15752421 75.68384555 66.15930536 79.3139993 66.16004276 C83.22616872 66.16189176 87.13832785 66.1694383 91.05049133 66.17617798 C99.60829345 66.18976798 108.16609088 66.19578701 116.72390199 66.20018864 C122.06568327 66.20294983 127.40746273 66.20718695 132.74924278 66.21169281 C147.53415342 66.22388616 162.3190626 66.23418547 177.10397816 66.2375679 C178.05049902 66.23778747 178.99701989 66.23800703 179.9722232 66.23823325 C180.9210295 66.23845153 181.8698358 66.23866981 182.84739381 66.2388947 C184.77008871 66.23933817 186.69278361 66.23978473 188.61547852 66.24023438 C190.04606806 66.24056652 190.04606806 66.24056652 191.50555839 66.24090537 C206.96280081 66.24485423 222.4199961 66.26231062 237.87722031 66.2855939 C253.74046022 66.30929623 269.60367647 66.32176924 285.46693438 66.32293582 C294.37618906 66.32385319 303.28538235 66.32962111 312.19462013 66.34775543 C319.78039084 66.36314131 327.36608118 66.36828583 334.95186452 66.36001733 C338.82297362 66.35610549 342.6939208 66.35706631 346.56501007 66.37107468 C350.76019848 66.38611719 354.9550206 66.37796298 359.15022278 66.36749268 C360.37580283 66.37554908 361.60138287 66.38360548 362.86410171 66.39190602 C368.71337408 66.35763648 372.91795483 66.23286002 378 63 C378.66 63 379.32 63 380 63 C380.28875 62.4225 380.5775 61.845 380.875 61.25 C382 59 382 59 383.046875 57.390625 C384.46116463 53.8433084 384.2977742 50.26651288 384.375 46.5 C384.97674748 31.7008655 389.92886502 19.57279159 400.6875 9.125 C407.59786353 3.24855346 414.9047859 -0.15662406 424 0 C424.07656229 6.36792224 424.12881323 12.73572416 424.16479492 19.10400391 C424.17980768 21.26680945 424.20022416 23.42958493 424.22631836 25.59228516 C424.26303366 28.71524511 424.27980196 31.8377998 424.29296875 34.9609375 C424.30845261 35.91551849 424.32393646 36.87009949 424.33988953 37.85360718 C424.34291243 50.12968025 420.41269929 59.46133698 411.8125 68.23046875 C401.10998061 77.61277605 388.7238395 79.756013 374.89982605 79.61473083 C373.42984663 79.618353 371.9598713 79.62416653 370.48990804 79.63195282 C366.4911219 79.64687553 362.49298591 79.63100353 358.49425137 79.6096462 C354.16638995 79.59205019 349.83858839 79.60355436 345.51071167 79.61131287 C337.04986854 79.62194899 328.58927568 79.60609566 320.12847068 79.5811746 C310.26816607 79.55316354 300.40791127 79.55190134 290.54757348 79.55173159 C272.95361865 79.55054599 255.35977836 79.52562208 237.76586914 79.48706055 C220.70465725 79.44969095 203.64352861 79.42846272 186.58227539 79.42553711 C185.53065872 79.4253543 184.47904205 79.42517149 183.3955582 79.42498314 C182.34573303 79.42480417 181.29590787 79.4246252 180.21426982 79.4244408 C178.10036957 79.42407538 175.98646933 79.423703 173.87256908 79.42332363 C172.82999313 79.42313812 171.78741719 79.4229526 170.71324803 79.42276147 C154.43422607 79.41918965 138.1552169 79.40074018 121.87620797 79.38083039 C115.98249525 79.37381545 110.08878556 79.36902838 104.19506957 79.36586904 C94.84936781 79.36081562 85.50372381 79.34936143 76.15805175 79.32456874 C71.88958935 79.31336513 67.62118349 79.30523132 63.352705 79.30570221 C59.44279285 79.30601141 55.53301434 79.29703271 51.62313715 79.28073419 C50.21156726 79.27643022 48.7999824 79.27543777 47.38840856 79.27816027 C33.56729562 79.30104818 21.68921907 77.66614674 11.25 67.875 C1.89520412 57.939676 -0.16748258 48.54526446 -0.09765625 35.3515625 C-0.0962413 34.33903412 -0.09482635 33.32650574 -0.09336853 32.28329468 C-0.08779143 29.06383249 -0.07524312 25.84444101 -0.0625 22.625 C-0.05748204 20.43619892 -0.05291965 18.24739675 -0.04882812 16.05859375 C-0.0378295 10.70570523 -0.0211142 5.35285767 0 0 Z " fill="#F6F6F6" transform="translate(415,945)"/>
<path d="M0 0 C0.07656229 6.36792224 0.12881323 12.73572416 0.16479492 19.10400391 C0.17980768 21.26680945 0.20022416 23.42958493 0.22631836 25.59228516 C0.26303366 28.71524511 0.27980196 31.8377998 0.29296875 34.9609375 C0.30845261 35.91551849 0.32393646 36.87009949 0.33988953 37.85360718 C0.34291243 50.12968025 -3.58730071 59.46133698 -12.1875 68.23046875 C-22.91290542 77.63283896 -35.30985959 79.7562494 -49.16073608 79.60127258 C-50.63712768 79.60345868 -52.11351733 79.60784705 -53.5898968 79.61421841 C-57.60607934 79.625296 -61.62158377 79.60554265 -65.63768005 79.58032811 C-69.9837577 79.55859203 -74.32980181 79.56605276 -78.67591858 79.56983948 C-86.19229455 79.57245222 -93.70845231 79.55685961 -101.22477341 79.52865028 C-112.09186855 79.48789196 -122.95885894 79.47498048 -133.82602222 79.46871033 C-151.46024639 79.45778644 -169.09435444 79.42456409 -186.72851562 79.37719727 C-203.8512311 79.33125226 -220.97391496 79.29588456 -238.09667969 79.2746582 C-239.15338499 79.27334459 -240.21009029 79.27203097 -241.29881696 79.27067754 C-246.60037318 79.26415202 -251.90192962 79.25783356 -257.2034862 79.25161803 C-301.13573786 79.19984439 -345.06786292 79.11183117 -389 79 C-389 78.67 -389 78.34 -389 78 C-312.11 77.67 -235.22 77.34 -156 77 C-155.67 73.7 -155.34 70.4 -155 67 C-153.08439774 66.99120064 -153.08439774 66.99120064 -151.13009644 66.98222351 C-139.09403455 66.92500681 -127.05815352 66.85225043 -115.02227592 66.76428509 C-108.83452532 66.71956062 -102.64684088 66.68030885 -96.45898438 66.65356445 C-90.48718908 66.62755254 -84.51564811 66.58716453 -78.54401016 66.53681374 C-76.26589242 66.52013084 -73.98773068 66.50862544 -71.70956039 66.50238609 C-68.51817931 66.49276076 -65.32745096 66.46471914 -62.13623047 66.43237305 C-60.72389885 66.43452568 -60.72389885 66.43452568 -59.28303528 66.4367218 C-54.04362981 66.36163665 -50.61766811 65.72998466 -46 63 C-45.34 63 -44.68 63 -44 63 C-43.71125 62.4225 -43.4225 61.845 -43.125 61.25 C-42 59 -42 59 -40.953125 57.390625 C-39.53883537 53.8433084 -39.7022258 50.26651288 -39.625 46.5 C-39.02325252 31.7008655 -34.07113498 19.57279159 -23.3125 9.125 C-16.40213647 3.24855346 -9.0952141 -0.15662406 0 0 Z " fill="#EBEBEB" transform="translate(839,945)"/>
<path d="M0 0 C15.84 0 31.68 0 48 0 C48 15.84 48 31.68 48 48 C32.16 48 16.32 48 0 48 C0 32.16 0 16.32 0 0 Z " fill="#F1F1F1" transform="translate(333,348)"/>
<path d="M0 0 C0.83272934 0.00222061 1.66545868 0.00444122 2.52342224 0.00672913 C3.95458374 0.0069104 3.95458374 0.0069104 5.41465759 0.00709534 C6.92920532 0.01476929 6.92920532 0.01476929 8.47434998 0.02259827 C9.39727844 0.02360535 10.32020691 0.02461243 11.27110291 0.02565002 C14.73339574 0.03089958 18.19567092 0.04486071 21.65794373 0.05775452 C29.39231873 0.07837952 37.12669373 0.09900452 45.09544373 0.12025452 C45.09544373 15.63025452 45.09544373 31.14025452 45.09544373 47.12025452 C29.25544373 47.12025452 13.41544373 47.12025452 -2.90455627 47.12025452 C-2.92518127 39.55087952 -2.94580627 31.98150452 -2.96705627 24.18275452 C-2.97616028 21.79033508 -2.98526428 19.39791565 -2.99464417 16.93299866 C-2.9975632 15.04880327 -3.00011178 13.16460725 -3.00221252 11.28041077 C-3.00732849 10.29230408 -3.01244446 9.30419739 -3.01771545 8.28614807 C-3.0178363 7.35234314 -3.01795715 6.41853821 -3.01808167 5.45643616 C-3.02030228 4.64147171 -3.02252289 3.82650726 -3.02481079 2.98684692 C-2.85959232 0.42232335 -2.56327262 0.16184615 0 0 Z " fill="#EFEFEF" transform="translate(875.9045562744141,346.87974548339844)"/>
<path d="M0 0 C1.03688965 0.01047363 2.0737793 0.02094727 3.14208984 0.03173828 C4.26357422 0.03818359 5.38505859 0.04462891 6.54052734 0.05126953 C7.71615234 0.06802734 8.89177734 0.08478516 10.10302734 0.10205078 C11.87806641 0.11558594 11.87806641 0.11558594 13.68896484 0.12939453 C16.61885257 0.15302266 19.54834075 0.18596564 22.47802734 0.22705078 C22.47802734 1.21705078 22.47802734 2.20705078 22.47802734 3.22705078 C20.52880859 5.03173828 20.52880859 5.03173828 17.79052734 7.10205078 C10.79957732 12.61309839 4.68191067 18.85870515 -1.52197266 25.22705078 C-2.18197266 25.88705078 -2.84197266 26.54705078 -3.52197266 27.22705078 C-5.52347202 23.22405206 -4.70682474 18.12788347 -4.70947266 13.72705078 C-4.72171875 12.65583984 -4.73396484 11.58462891 -4.74658203 10.48095703 C-4.74851562 9.45873047 -4.75044922 8.43650391 -4.75244141 7.38330078 C-4.75655029 6.44292969 -4.76065918 5.50255859 -4.76489258 4.53369141 C-4.40614859 1.12724597 -3.37268274 0.30363939 0 0 Z " fill="#F1F2F0" transform="translate(517.52197265625,513.77294921875)"/>
<path d="M0 0 C0.33 0 0.66 0 1 0 C1.33 10.23 1.66 20.46 2 31 C3.65 30.67 5.3 30.34 7 30 C8 31 8 31 8.11352539 33.68383789 C8.10828857 34.85164795 8.10305176 36.01945801 8.09765625 37.22265625 C8.09443359 38.48271484 8.09121094 39.74277344 8.08789062 41.04101562 C8.07953403 42.38151109 8.07106907 43.72200588 8.0625 45.0625 C8.0574866 46.40689942 8.05292342 47.7513006 8.04882812 49.09570312 C8.03699488 52.39717941 8.02050971 55.69856803 8 59 C6.02 59 4.04 59 2 59 C1.67 75.83 1.34 92.66 1 110 C0.67 110 0.34 110 0 110 C0 73.7 0 37.4 0 0 Z " fill="#F2F2F2" transform="translate(1074,341)"/>
<path d="M0 0 C0.33 0 0.66 0 1 0 C1.8633721 5.21324136 2.14709673 10.21700438 2.1328125 15.49609375 C2.13376923 16.28846939 2.13472595 17.08084503 2.13571167 17.89723206 C2.13638848 19.56373169 2.13456922 21.23023403 2.13037109 22.89672852 C2.12502292 25.42665625 2.13032944 27.95640589 2.13671875 30.48632812 C2.13605774 32.11458372 2.13477611 33.74283921 2.1328125 35.37109375 C2.13483673 36.11717392 2.13686096 36.86325409 2.13894653 37.63194275 C2.11755819 42.50086491 1.68505756 47.17840567 1 52 C-0.74959319 49.37561021 -1.62068453 48.03452373 -2 45 C-1.34 44.01 -0.68 43.02 0 42 C0.28807713 40.00239911 0.28807713 40.00239911 0.22705078 37.80395508 C0.22689972 36.96331009 0.22674866 36.1226651 0.22659302 35.25654602 C0.21627045 34.35333115 0.20594788 33.45011627 0.1953125 32.51953125 C0.19106766 31.12754768 0.19106766 31.12754768 0.18673706 29.70744324 C0.17553836 26.74233121 0.15043435 23.77752079 0.125 20.8125 C0.1149698 18.80273874 0.10584402 16.79297274 0.09765625 14.78320312 C0.07560004 9.85535247 0.04107229 4.92772738 0 0 Z " fill="#80BF39" transform="translate(774,615)"/>
<path d="M0 0 C0.66 0.33 1.32 0.66 2 1 C-2.625 5.875 -2.625 5.875 -6 7 C-6.309375 7.639375 -6.61875 8.27875 -6.9375 8.9375 C-8.25784218 11.50051718 -9.4814674 11.7407337 -12 13 C-12.70151152 14.3153341 -13.36525925 15.65117592 -14 17 C-15.29470975 18.37086915 -16.62150897 19.71340837 -18 21 C-18.99 20.67 -19.98 20.34 -21 20 C-18.44169924 17.4124795 -15.87762584 14.83075324 -13.3125 12.25 C-12.59126953 11.52039063 -11.87003906 10.79078125 -11.12695312 10.0390625 C-7.56707131 6.46292552 -4.04793527 3.03395543 0 0 Z " fill="#74BD24" transform="translate(537,518)"/>
<path d="M0 0 C0.33 0 0.66 0 1 0 C1.11269443 6.1105424 0.89604368 11.95170514 0 18 C-1.74959319 15.37561021 -2.62068453 14.03452373 -3 11 C-2.34 10.01 -1.68 9.02 -1 8 C-0.54860541 5.9507906 -0.54860541 5.9507906 -0.375 3.8125 C-0.25125 2.554375 -0.1275 1.29625 0 0 Z " fill="#86C640" transform="translate(775,649)"/>
<path d="M0 0 C0.66 1.32 1.32 2.64 2 4 C1.34 4 0.68 4 0 4 C-0.061875 4.556875 -0.12375 5.11375 -0.1875 5.6875 C-1.33373872 8.94987173 -3.49390197 10.68667874 -6 13 C-4.31326082 8.50202887 -2.18326108 4.27113698 0 0 Z " fill="#E0F0CF" transform="translate(760,709)"/>
<path d="M0 0 C0.66 0.33 1.32 0.66 2 1 C-1.12621626 4.39417765 -3.56541027 6.6062718 -8 8 C-5.33333333 5.33333333 -2.66666667 2.66666667 0 0 Z " fill="#79BC31" transform="translate(537,518)"/>
<path d="M0 0 C0.33 0.99 0.66 1.98 1 3 C-0.43359375 5.04296875 -0.43359375 5.04296875 -2.4375 7.1875 C-3.09621094 7.90292969 -3.75492188 8.61835938 -4.43359375 9.35546875 C-5.20896484 10.16951172 -5.20896484 10.16951172 -6 11 C-6.99 10.34 -7.98 9.68 -9 9 C-8.071875 8.443125 -7.14375 7.88625 -6.1875 7.3125 C-3.0580593 5.04212145 -1.70245949 3.40491897 0 0 Z " fill="#D1D0D1" transform="translate(953,417)"/>
<path d="M0 0 C1.65 0 3.3 0 5 0 C5 0.66 5 1.32 5 2 C6.32 2.33 7.64 2.66 9 3 C4.545 3.495 4.545 3.495 0 4 C0 2.68 0 1.36 0 0 Z " fill="#DBE8CF" transform="translate(599,486)"/>
<path d="M0 0 C0.66 0.33 1.32 0.66 2 1 C1.34 1.61875 0.68 2.2375 0 2.875 C-2.2284549 4.75637427 -2.2284549 4.75637427 -2 7 C-3.65 6.67 -5.3 6.34 -7 6 C-6.21625 5.38125 -5.4325 4.7625 -4.625 4.125 C-2.03162353 2.10141339 -2.03162353 2.10141339 0 0 Z " fill="#E5F1DB" transform="translate(714,764)"/>
<path d="M0 0 C3 1 3 1 4.25 2.8125 C5.11637742 5.33943414 4.88492145 6.52221994 4 9 C2.00902154 6.01353231 1.05875074 3.40312738 0 0 Z " fill="#ECF1E7" transform="translate(765,581)"/>
<path d="M0 0 C0.99 0.33 1.98 0.66 3 1 C1.35 2.65 -0.3 4.3 -2 6 C-2 4.68 -2 3.36 -2 2 C-1.34 2 -0.68 2 0 2 C0 1.34 0 0.68 0 0 Z " fill="#E8E8E7" transform="translate(1026,483)"/>
</svg>
