<svg xmlns="http://www.w3.org/2000/svg" viewBox="0 0 1254 1254"><path
 fill="#f9f9f9" d="M0 0h1254v1254H0z"/><path 
 fill="#040404" d="m257.545 197.872 3.292-.009 3.59.006 3.851-.007q5.304-.007 10.608-.003 5.765-.001 11.531-.008 11.441-.011 22.882-.01 13.703-.004 27.404-.015c22.079-.016 44.158-.022 66.237-.027l31.333-.01a408396 408396 0 0 1 137.664-.03c36.287-.003 72.573-.02 108.86-.042a188665 188665 0 0 1 127.72-.04h3.142q25.031-.005 50.062-.027 25.16-.022 50.32-.01 14.947.007 29.893-.015 9.988-.014 19.978.001 5.688.01 11.376-.006c4.092-.014 8.185-.004 12.277.008l3.535-.023c20.885.132 39.256 7.827 54.9 21.395l2.316 1.988c14.052 12.976 23.016 33.339 23.967 52.322.155 4.923.146 9.846.137 14.77q.01 2.822.026 5.643c.022 5.071.025 10.141.023 15.212q.002 6.381.017 12.761.027 15.074.015 30.147c-.007 10.317.016 20.633.053 30.95q.045 13.35.038 26.702c-.002 5.297.004 10.594.028 15.89.023 4.99.02 9.978 0 14.967q-.005 2.721.016 5.441c.184 24.701-6.666 48.735-24.199 66.855-16.136 15.266-34.566 22.71-56.668 22.58h-3.935q-5.302-.002-10.603-.025c-3.704-.013-7.407-.014-11.11-.016-7.002-.006-14.004-.023-21.005-.043-7.976-.022-15.952-.033-23.928-.043Q898.594 535.069 874 535l.005 2.898a200034 200034 0 0 1 .215 190.565l.001 2.054q.027 32.925.084 65.849.059 34.812.071 69.625.008 20.84.056 41.683.03 14.302.022 28.604c-.003 5.496.001 10.993.023 16.49q.028 7.563.007 15.126-.003 2.721.016 5.444c.095 14.552-1.207 29.222-8.375 42.225l-1.052 2c-2.604 4.841-5.493 9.257-9.073 13.437l-1.469 1.934c-10.5 13.203-27.25 21.033-43.531 24.066-5.242.512-10.45.543-15.712.508q-2.286.006-4.572.019c-4.145.016-8.289.008-12.433-.004-4.487-.01-8.974.005-13.46.016-8.773.018-17.545.014-26.317.002q-10.7-.013-21.4-.006l-3.084.002-6.204.004c-19.362.011-38.724-.002-58.086-.023q-24.885-.026-49.77.003a33142 33142 0 0 1-64.068.014l-3.07-.002q-10.68-.003-21.36.012-13.025.017-26.05-.013a2471 2471 0 0 0-13.276-.001q-6.09.017-12.18-.016-2.19-.008-4.379.007c-13.311.083-25.731-2.187-37.454-8.772l-2.164-1.188c-5.672-3.207-10.52-6.76-14.961-11.562l-2.254-2.383c-15.785-17.895-19.389-38.922-19.227-62.055q-.003-2.838-.01-5.677c-.01-5.147.007-10.294.027-15.441.017-5.57.011-11.14.008-16.711q-.002-14.45.033-28.9c.033-13.928.043-27.856.048-41.784q.015-33.903.073-67.804.056-32.918.082-65.837l.002-2.053.015-20.41q.065-85.472.203-170.945l-1.947.006q-23.527.066-47.056.098-11.377.014-22.756.047-9.926.03-19.85.037-5.25.003-10.497.023c-3.92.017-7.84.017-11.76.016l-3.457.022c-23.6-.06-42.547-7.685-59.677-23.811-18.249-18.703-23.648-42.733-23.502-68.062q-.006-2.854-.016-5.708c-.014-5.113-.003-10.226.014-15.34.014-5.379.007-10.758.003-16.137q-.002-13.536.034-27.072c.027-10.405.029-20.81.017-31.215q-.014-15.079.01-30.157.007-6.39 0-12.779-.005-7.53.028-15.06.008-2.75 0-5.499c-.06-25.25 7.832-46.537 25.6-64.725 13.958-13.319 32.788-22.8 52.357-22.812"/><path fill="#f9f9f8" d="M415 348h424v562l-18 4c-21.969 7.892-38.05 22.95-48 44-2.558 6.667-3.988 12.916-5 20H486l-4-17c-1.178-3.046-2.22-5.632-3.75-8.437l-1.043-1.987C467.288 932.266 452.06 923.03 434 914l-19-3z"/><path fill="#f8f8f8" d="m264.57 232.74 3.86-.012c3.54-.01 7.08-.008 10.62-.004 3.85.003 7.7-.006 11.549-.014q10.124-.017 20.247-.016c10.036.001 20.072-.01 30.108-.022 20.013-.025 40.025-.034 60.037-.039h3.141l3.148-.001q17.259-.006 34.519-.016 52.125-.032 104.248-.04h3.369l23.687-.002h3.395q52.809-.006 105.617-.061a116060 116060 0 0 1 131.283-.065h3.146c16.711-.002 33.422-.019 50.133-.042q25.192-.034 50.384-.013 14.966.015 29.932-.023 10.002-.022 20.002.004c3.797.01 7.594.01 11.391-.01 4.097-.022 8.193-.005 12.29.015l3.546-.038c13.424.143 23.823 5.132 33.45 14.241 11.883 12.588 12.629 27.945 12.603 44.216l.015 5.408c.013 4.879.014 9.757.012 14.635q0 6.125.008 12.248.016 14.459.006 28.916c-.006 9.919.006 19.837.027 29.756q.026 12.806.02 25.61c-.001 5.09.001 10.18.015 15.268q.018 7.185-.002 14.371-.004 2.624.009 5.247c.073 16.645-1.663 32.877-13.573 45.618C1021.827 492.522 1015.067 498 1008 498v2c-2.575 1.288-4.405 1.123-7.29 1.12l-3.4.004-3.746-.01h-3.932q-5.346-.001-10.691-.013c-3.723-.006-7.445-.006-11.167-.008q-10.577-.005-21.154-.021-14.29-.018-28.58-.024c-15.013-.01-30.026-.03-45.04-.048v-73c34.562-.187 34.562-.187 45.444-.208 3.24-.03 3.24-.03 6.482-.066a352 352 0 0 1 4.304-.012c9.408.321 9.408.321 18.02-2.82 5.728-6.027 7.35-10.644 7.283-18.732.01-.856.018-1.712.027-2.594.022-2.814.015-5.626.006-8.44l.02-5.898q.014-6.171-.01-12.344c-.017-5.26.007-10.519.042-15.78.022-4.058.02-8.117.012-12.175q0-2.91.02-5.817c.018-2.716.004-5.43-.019-8.147l.036-2.401c-.099-5.829-1.711-10.21-5.667-14.566-5.331-4.547-9.744-4.569-16.589-4.506l-3.248-.019c-3.61-.015-7.22-.002-10.83.01q-3.912-.008-7.822-.02-8.517-.024-17.033-.01c-8.443.014-16.886.004-25.33-.01-15.078-.026-30.157-.027-45.236-.02a37140 37140 0 0 1-44.894-.002l-7.997-.004a74896 74896 0 0 0-99.964.006q-44.42.021-88.839-.022a79739 79739 0 0 0-110.408-.033h-2.645q-19.782.004-39.564-.02-22.492-.03-44.983.004-12.593.021-25.184-.01c-6.261-.014-12.522-.002-18.784.02q-3.807.008-7.614-.011a924 924 0 0 0-10.321.02l-3.012-.036c-6.538.087-9.8 1.28-14.703 5.663-4.054 5.102-4.577 9.667-4.502 16.053l-.016 2.663c-.013 2.888.004 5.775.022 8.663q0 3.024-.005 6.047 0 6.327.034 12.652c.029 5.4.026 10.798.013 16.197-.007 4.16.001 8.32.014 12.48q.006 2.985 0 5.972a941 941 0 0 0 .036 8.35l-.014 2.48c.082 6.31 1.59 10.38 5.855 15.193 4.431 3.89 7.355 4.503 13.26 4.569l2.043.03c2.175.031 4.35.048 6.526.065l4.038.054c4.982.063 9.964.109 14.946.157L380 431v70c-31.947.12-31.947.12-45.367.146-9.255.018-18.51.04-27.764.08q-10.11.046-20.223.056c-3.566.004-7.132.013-10.698.035-3.99.025-7.98.025-11.97.024l-3.547.032c-12.869-.048-23.143-3.692-32.728-12.478-8.188-8.696-13.016-19.023-12.977-31.015l-.016-2.427c-.015-2.676-.016-5.352-.016-8.028l-.026-5.767c-.022-5.217-.03-10.434-.035-15.651q-.006-4.894-.017-9.789a18589 18589 0 0 1-.042-34.179 8813 8813 0 0 0-.075-31.809q-.051-13.673-.05-27.345c-.002-5.44-.01-10.877-.039-16.316q-.038-7.68-.012-15.36.003-2.808-.02-5.616c-.125-15.41 2.722-28.146 13.653-39.75 10.855-10.242 22.006-13.15 36.538-13.103"/><circle cx="626.5" cy="640.5" r="166" fill="#6ab513"/><g fill="#fbfcf9"><rect x="538" y="622.5" width="177" height="36" rx="18"/><rect x="608.5" y="550" width="36" height="181" rx="18"/></g><path fill="#f6f6f6" d="M415 945c11.864 1.335 21.69 6.345 29.367 15.664 7.336 10.495 9.934 20.613 10.024 33.156.168 5.15 1.272 8.057 4.609 12.18 4.418 3.987 7.465 5.124 13.35 5.131l3.385.012 3.734-.003 3.955.01q5.445.011 10.89.01c3.912.002 7.824.01 11.736.016q12.837.02 25.674.024 8.013.005 16.025.012 22.178.019 44.355.026h5.743l8.659.003q23.186.007 46.371.045 23.795.035 47.59.037 13.364-.001 26.728.025 11.378.023 22.757.012 5.806-.008 11.613.011c4.195.015 8.39.007 12.585-.004l3.714.025c5.85-.034 10.054-.16 15.136-3.392h2l.875-1.75c1.125-2.25 1.125-2.25 2.172-3.86 1.414-3.547 1.25-7.123 1.328-10.89.602-14.8 5.554-26.927 16.313-37.375 6.91-5.876 14.217-9.282 23.312-9.125.077 6.368.129 12.736.165 19.104q.022 3.245.061 6.488c.037 3.123.054 6.246.067 9.369.015.955.03 1.91.047 2.893.003 12.276-3.927 21.607-12.528 30.376-10.702 9.383-23.088 11.526-36.912 11.385q-2.205.005-4.41.017c-3.999.015-7.997-.001-11.996-.022-4.328-.018-8.655-.006-12.983.001-8.461.01-16.922-.005-25.383-.03-9.86-.028-19.72-.03-29.58-.03-17.594 0-35.188-.025-52.782-.064q-25.591-.057-51.184-.061l-3.186-.001-9.523-.002h-3.16c-16.279-.004-32.558-.022-48.837-.042q-8.84-.01-17.68-.015-14.02-.006-28.038-.041-6.403-.019-12.805-.02-5.865 0-11.73-.024a851 851 0 0 0-4.235-.003c-13.82.023-25.699-1.612-36.138-11.403-9.355-9.935-11.417-19.33-11.348-32.523l.005-3.069c.005-3.22.018-6.439.03-9.658q.009-3.284.014-6.566.017-8.03.049-16.059"/><path fill="#ebebeb" d="M839 945c.077 6.368.129 12.736.165 19.104q.022 3.245.061 6.488c.037 3.123.054 6.246.067 9.369.015.955.03 1.91.047 2.893.003 12.276-3.927 21.607-12.528 30.376-10.725 9.403-23.122 11.526-36.973 11.371q-2.215.004-4.429.013c-4.016.011-8.032-.008-12.048-.034-4.346-.021-8.692-.014-13.038-.01a5499 5499 0 0 1-22.549-.041c-10.867-.041-21.734-.054-32.601-.06q-26.45-.018-52.903-.092a35583 35583 0 0 0-54.57-.106l-15.904-.02c-43.933-.051-87.865-.14-131.797-.251v-1l233-1 1-10 3.87-.018q18.054-.086 36.108-.218c6.187-.044 12.375-.084 18.563-.11q8.957-.04 17.915-.117 3.417-.025 6.834-.035c3.192-.01 6.383-.037 9.574-.07l2.853.005c5.24-.075 8.665-.707 13.283-3.437h2l.875-1.75c1.125-2.25 1.125-2.25 2.172-3.86 1.414-3.547 1.25-7.123 1.328-10.89.602-14.8 5.554-26.927 16.313-37.375 6.91-5.876 14.217-9.282 23.312-9.125"/><path fill="#f1f1f1" d="M333 348h48v48h-48z"/><path fill="#efefef" d="m875.905 346.88 2.523.006h2.891c1.515.009 1.515.009 3.06.016l2.797.003c3.462.006 6.924.02 10.387.033L921 347v47h-48l-.062-22.937-.028-7.25-.008-5.653-.015-2.994v-2.83l-.007-2.47c.165-2.564.461-2.824 3.025-2.986"/><path fill="#f2f2f2" d="M1074 341h1l1 31 5-1c1 1 1 1 1.114 3.684l-.016 3.539-.01 3.818-.025 4.022q-.008 2.016-.014 4.033A3769 3769 0 0 1 1082 400h-6l-1 51h-1z"/></svg>