<svg xmlns="http://www.w3.org/2000/svg" width="1254" height="1254"
 aria-label="Subtract money icon" 
 viewBox="0 0 1254 1254"><path id="canvas-background" 
 fill="#f9f9f9" d="M0 0h1254v1254H0z"/><path id="outer-highlight"
  fill="#f8f8f8" d="m0 0 3.713-.008q5.113-.009 10.226-.008Q19.497-.02 25.056-.03q11.03-.016 22.06-.02 13.21-.01 26.421-.027c21.29-.026 42.579-.041 63.868-.054l21.157-.013a328641 328641 0 0 1 138.593-.07h3.271q52.486-.02 104.973-.085A103349 103349 0 0 1 528.59-.376h3.032c16.088-.004 32.176-.025 48.263-.051q24.27-.04 48.54-.023 14.407.01 28.816-.03 9.64-.025 19.28 0c3.655.008 7.31.009 10.964-.013 24.795-.139 44.946 2.225 64.506 18.63l2.242 1.766c13.256 10.916 21.848 27.44 24.758 44.234.552 6.495.422 13.031.404 19.544q.009 2.931.021 5.863c.018 5.28.017 10.558.011 15.838-.003 4.423.003 8.845.01 13.268q.019 15.668 0 31.335c-.011 10.737.003 21.474.03 32.21a9142 9142 0 0 1 .023 27.755c-.004 5.51-.002 11.021.016 16.532q.021 7.782-.007 15.565-.006 2.836.01 5.673c.118 23.073-4.79 42.605-20.893 59.98l-2.625 2.437-1.992 1.867c-14.486 13.284-30.677 19.32-50.328 19.247h-3.106q-5.064-.002-10.128-.016l-7.037-.005q-9.247-.006-18.495-.024-9.44-.014-18.883-.02-18.515-.016-37.03-.049v2.6a644740 644740 0 0 1 .054 171.546v3.709q.008 29.595.022 59.19.014 30.447.017 60.893.002 18.735.014 37.468.007 12.908.006 25.815-.001 7.409.005 14.816c.012 11.43-.009 22.86-.098 34.29l-.04 5.479q-.059 8.59-.197 17.18a739 739 0 0 0-.061 5.379c-.117 14.091-1.722 27.2-8.41 39.885l-1.034 2.004c-9.42 17.614-24.401 28.503-42.685 35.703-10.41 3.021-20.781 3.335-31.539 3.31l-4.758.014c-4.33.012-8.66.012-12.99.01-4.68 0-9.362.01-14.043.02q-13.74.023-27.48.023-11.175.002-22.35.012a70234 70234 0 0 1-66.895.025h-3.455c-18.472-.001-36.945.018-55.417.046q-28.489.043-56.978.04c-10.652 0-21.305.005-31.958.027q-13.605.029-27.21.009a2676 2676 0 0 0-13.866.01q-6.364.024-12.727-.004-2.285-.005-4.57.012c-13.751.095-28.016-1.662-40.17-8.573l-2.111-1.163c-18.448-10.604-29.765-27.992-36.35-47.86-1.562-6.266-1.874-12.51-1.85-18.943l-.003-2.335q-.003-3.86.006-7.72 0-2.802-.003-5.602-.002-7.686.007-15.372.005-8.293.002-16.585 0-14.364.008-28.727.012-20.768.012-41.535.005-33.693.019-67.387.014-32.73.02-65.46v-2.04l.004-20.268q.017-84.97.051-169.941l-3.923.027q-18.381.122-36.762.18c-6.298.021-12.597.05-18.895.095-6.089.044-12.177.067-18.265.078q-3.47.01-6.938.043c-22.54.203-40.786-2.862-58.217-18.423l-2.304-2.02c-15.155-14.131-23-33.913-23.973-54.457-.145-4.914-.13-9.827-.111-14.742l-.016-5.614c-.013-5.033-.008-10.066.001-15.099.008-5.294 0-10.589-.004-15.883q-.006-13.328.016-26.654c.016-10.24.011-20.481-.005-30.722q-.02-13.245-.008-26.488.009-7.887-.005-15.772-.011-7.414.015-14.83a920 920 0 0 0-.004-5.41c-.084-24.987 6.14-45.626 23.398-64.309C-40.184 6.117-21.528-.023 0 0" transform="translate(277.008 204.863)"/><path id="outer-silhouette" fill="#030202" d="m0 0 3.713-.008q5.113-.009 10.226-.008Q19.497-.02 25.056-.03q11.03-.016 22.06-.02 13.21-.01 26.421-.027c21.29-.026 42.579-.041 63.868-.054l21.157-.013a328641 328641 0 0 1 138.593-.07h3.271q52.486-.02 104.973-.085A103349 103349 0 0 1 528.59-.376h3.032c16.088-.004 32.176-.025 48.263-.051q24.27-.04 48.54-.023 14.407.01 28.816-.03 9.64-.025 19.28 0c3.655.008 7.31.009 10.964-.013 24.795-.139 44.946 2.225 64.506 18.63l2.242 1.766c13.256 10.916 21.848 27.44 24.758 44.234.552 6.495.422 13.031.404 19.544q.009 2.931.021 5.863c.018 5.28.017 10.558.011 15.838-.003 4.423.003 8.845.01 13.268q.019 15.668 0 31.335c-.011 10.737.003 21.474.03 32.21a9142 9142 0 0 1 .023 27.755c-.004 5.51-.002 11.021.016 16.532q.021 7.782-.007 15.565-.006 2.836.01 5.673c.118 23.073-4.79 42.605-20.893 59.98l-2.625 2.437-1.992 1.867c-14.486 13.284-30.677 19.32-50.328 19.247h-3.106q-5.064-.002-10.128-.016l-7.037-.005q-9.247-.006-18.495-.024-9.44-.014-18.883-.02-18.515-.016-37.03-.049v2.6a644740 644740 0 0 1 .054 171.546v3.709q.008 29.595.022 59.19.014 30.447.017 60.893.002 18.735.014 37.468.007 12.908.006 25.815-.001 7.409.005 14.816c.012 11.43-.009 22.86-.098 34.29l-.04 5.479q-.059 8.59-.197 17.18a739 739 0 0 0-.061 5.379c-.117 14.091-1.722 27.2-8.41 39.885l-1.034 2.004c-9.42 17.614-24.401 28.503-42.685 35.703-10.41 3.021-20.781 3.335-31.539 3.31l-4.758.014c-4.33.012-8.66.012-12.99.01-4.68 0-9.362.01-14.043.02q-13.74.023-27.48.023-11.175.002-22.35.012a70234 70234 0 0 1-66.895.025h-3.455c-18.472-.001-36.945.018-55.417.046q-28.489.043-56.978.04c-10.652 0-21.305.005-31.958.027q-13.605.029-27.21.009a2676 2676 0 0 0-13.866.01q-6.364.024-12.727-.004-2.285-.005-4.57.012c-13.751.095-28.016-1.662-40.17-8.573l-2.111-1.163c-18.448-10.604-29.765-27.992-36.35-47.86-1.562-6.266-1.874-12.51-1.85-18.943l-.003-2.335q-.003-3.86.006-7.72 0-2.802-.003-5.602-.002-7.686.007-15.372.005-8.293.002-16.585 0-14.364.008-28.727.012-20.768.012-41.535.005-33.693.019-67.387.014-32.73.02-65.46v-2.04l.004-20.268q.017-84.97.051-169.941l-3.923.027q-18.381.122-36.762.18c-6.298.021-12.597.05-18.895.095-6.089.044-12.177.067-18.265.078q-3.47.01-6.938.043c-22.54.203-40.786-2.862-58.217-18.423l-2.304-2.02c-15.155-14.131-23-33.913-23.973-54.457-.145-4.914-.13-9.827-.111-14.742l-.016-5.614c-.013-5.033-.008-10.066.001-15.099.008-5.294 0-10.589-.004-15.883q-.006-13.328.016-26.654c.016-10.24.011-20.481-.005-30.722q-.02-13.245-.008-26.488.009-7.887-.005-15.772-.011-7.414.015-14.83a920 920 0 0 0-.004-5.41c-.084-24.987 6.14-45.626 23.398-64.309C-40.184 6.117-21.528-.023 0 0m122.992 142.137v544l12 2c2.472.593 4.934 1.23 7.375 1.938l3.399.964c3.226 1.098 3.226 1.098 6.39 2.727 2.911 1.661 2.911 1.661 6.836 1.371v2c1.753 1.087 3.555 2.093 5.375 3.063 6.345 3.588 11.44 7.85 16.625 12.937l2.48 2.379c14.29 14.865 19.25 31.34 23.52 51.621h287l3-16c6.724-22.348 21.26-42.514 42-54 12.206-5.914 23.558-8.76 37-11v-544z" transform="translate(277.008 204.863)"/><path id="inner-card-panel" fill="#f7f7f7" d="m0 0 3.698-.01q5.085-.01 10.17.001c3.688.005 7.375-.003 11.063-.009q9.695-.013 19.39-.006c9.612.005 19.224-.001 28.836-.01 18.165-.015 36.33-.016 54.495-.014a96261 96261 0 0 0 57.228-.009q42.34-.013 84.679-.008h3.225l16.186.003h3.247l6.5.001q50.572.008 101.145-.02a173959 173959 0 0 1 125.72-.027h3.013q22.52.001 45.04-.016 25.61-.019 51.22-.001 14.334.011 28.668-.009 9.575-.011 19.15.006 5.456.012 10.91-.004c3.922-.012 7.842-.001 11.763.012l3.407-.022c13.527.093 24.53 3.762 34.422 13.084 4.46 4.648 7.43 9.32 9.75 15.312l1.042 2.651c1.1 3.845 1.242 7.394 1.225 11.355l.014 2.39c.013 2.635.011 5.27.01 7.904q.008 2.839.02 5.678c.017 5.137.022 10.273.023 15.41q.003 4.819.011 9.638.028 16.827.025 33.654.002 15.659.052 31.317.038 13.463.036 26.926c0 5.355.005 10.71.026 16.064q.029 7.563.005 15.124-.004 2.764.015 5.529c.093 15.13-1.714 28.047-12.54 39.517-7.042 6.657-15.426 11.976-25.355 11.964l-2.643.004-2.875-.011h-3.046c-3.323 0-6.645-.008-9.967-.016l-6.91-.004q-9.096-.007-18.19-.025c-7.274-.012-14.549-.016-21.823-.022-11.052-.01-22.104-.03-33.155-.047v-71c34.5-.187 34.5-.187 45.353-.207 3.239-.03 3.239-.03 6.477-.067a351 351 0 0 1 4.294-.011c10.713.13 10.713.13 20.399-3.962 4.598-5.456 4.918-11.174 4.88-17.99l.022-2.722c.018-2.952.014-5.904.008-8.857l.016-6.182a2955 2955 0 0 0-.003-12.934c-.012-5.52.009-11.04.038-16.56.018-4.253.018-8.505.012-12.758q0-3.052.019-6.106c.014-2.846.004-5.69-.013-8.536l.029-2.537c-.067-5.314-.985-8.368-4.531-12.57l-3-2v-2c-63.22-.052-126.438-.1-189.657-.128h-2.834a914257 914257 0 0 0-90.87-.037l-3.006-.002q-48.246-.02-96.49-.062a147619 147619 0 0 0-115.907-.057 46148 46148 0 0 1-44.383-.035q-22.294-.027-44.589-.02-13.256.004-26.51-.022-8.848-.016-17.695-.003-5.046.008-10.092-.01c-3.62-.011-7.239-.005-10.859.006l-3.18-.024c-5.393.038-9.296.306-13.928 3.393-4.948 5.35-5.158 9.727-5.193 16.751l-.025 2.711c-.025 2.965-.041 5.93-.056 8.894l-.016 3.07q-.039 8.047-.06 16.095a2144 2144 0 0 1-.082 13.307c-.05 5.36-.074 10.718-.081 16.077a722 722 0 0 1-.046 6.118c-.032 2.86-.032 5.72-.025 8.58l-.05 2.534c.065 6.082 1.685 10.205 5.634 14.863 3.89 3.24 7.105 3.389 12.085 3.433l2.135.031c2.266.03 4.533.04 6.8.048l4.214.05c5.192.058 10.385.09 15.578.126l35.188.312v71c-25.264.16-25.264.16-36.076.196-7.363.024-14.725.052-22.088.106q-8.909.064-17.818.078-3.39.011-6.78.043c-3.178.03-6.356.033-9.534.032l-2.799.043c-10.937-.068-20.01-3.975-27.905-11.498-11.697-12.05-12.738-25.455-12.615-41.309q-.006-2.875-.017-5.75c-.014-5.17.003-10.338.026-15.507.02-5.428.014-10.855.012-16.282q.002-13.661.052-27.323c.037-10.513.046-21.026.039-31.538-.007-10.14.004-20.28.024-30.42q.011-6.456.009-12.912-.001-7.605.04-15.21.01-2.783.005-5.566c-.023-15.446 1.433-26.82 12.6-38.448C-23.65 2.43-13.734-.053 0 0" transform="translate(278.075 238.746)"/><path id="red-badge-highlight" fill="#f9f7f7" d="M0 0c8.82 6.906 17.263 14.278 24.25 23.063l2.414 2.953C39.812 42.647 49.701 62.33 54.25 83.063l.796 3.578c2.026 9.589 2.728 18.824 2.642 28.609l-.008 2.158c-.063 12.227-1.325 23.81-4.43 35.655l-.518 2.078c-6.364 25.403-20.622 47.174-38.482 65.922l-2.172 2.367c-13.516 14.278-31.164 24.442-49.426 31.343-3.42 1.25-3.42 1.25-6.71 2.82-4.506 1.793-8.94 2.708-13.692 3.594l-2.617.512c-2.458.475-4.919.923-7.383 1.363l-3.242.602c-38.396 4.071-78.45-4.053-109.137-28.398-4.318-3.63-8.527-7.322-12.621-11.203l-2.902-2.708c-27.758-26.404-43.424-65.16-44.447-103.246-.137-14.174 2.317-27.48 5.786-41.171l.585-2.333c1.226-4.58 2.876-8.612 5.083-12.805 1.023-1.985 1.748-3.997 2.458-6.112 4.761-12.158 12.815-23.902 21.437-33.625l1.299-1.494C-151.856-38.525-62.75-47.87 0 0" transform="translate(716.75 540.938)"/><path id="red-badge" fill="#d81621" d="M0 0c8.82 6.906 17.263 14.278 24.25 23.063l2.414 2.953C39.812 42.647 49.701 62.33 54.25 83.063l.796 3.578c2.026 9.589 2.728 18.824 2.642 28.609l-.008 2.158c-.063 12.227-1.325 23.81-4.43 35.655l-.518 2.078c-6.364 25.403-20.622 47.174-38.482 65.922l-2.172 2.367c-13.516 14.278-31.164 24.442-49.426 31.343-3.42 1.25-3.42 1.25-6.71 2.82-4.506 1.793-8.94 2.708-13.692 3.594l-2.617.512c-2.458.475-4.919.923-7.383 1.363l-3.242.602c-38.396 4.071-78.45-4.053-109.137-28.398-4.318-3.63-8.527-7.322-12.621-11.203l-2.902-2.708c-27.758-26.404-43.424-65.16-44.447-103.246-.137-14.174 2.317-27.48 5.786-41.171l.585-2.333c1.226-4.58 2.876-8.612 5.083-12.805 1.023-1.985 1.748-3.997 2.458-6.112 4.761-12.158 12.815-23.902 21.437-33.625l1.299-1.494C-151.856-38.525-62.75-47.87 0 0m-126.75 7.063-3.137.906c-28.773 9.29-52.007 31.751-65.863 58.094-.88 2-1.64 3.98-2.328 6.054-.672 1.945-.672 1.945-1.594 3.953-10.322 22.79-8.952 49.276-3.078 72.993l.77 3.269c7.518 26.48 28.548 51.125 52.097 64.559 26.768 14.767 58.305 20.422 88.405 12.713 16.251-4.736 31.625-12.864 44.728-23.542l2.715-2.203c21.611-18.514 36.528-46.35 39.285-74.797 2.132-33.72-7.08-63.302-29.187-89-15.481-16.76-35.732-29.102-57.813-35l-3.309-.902C-85.506-.535-106.836.858-126.75 7.063" transform="translate(716.75 540.938)"/><path id="bottom-highlight" fill="#f8f8f8" d="M0 0q2.145-.032 4.29-.05l2.412-.03C16.672.266 24.867 6.684 32 13l2.535 1.938C45.158 23.825 51.675 38.405 53 52c.229 3.842.433 7.673.559 11.52.644 5.08 2.205 8.365 6.004 11.792 3.59 2.486 5.402 2.814 9.74 2.82l3.429.011 3.8-.003 4.012.01q5.53.011 11.062.01c3.972.002 7.944.01 11.917.016q13.038.02 26.076.024 8.14.005 16.277.012 22.525.019 45.05.026h5.835l5.86.002h2.937q23.549.009 47.097.046 24.165.035 48.332.037 13.572-.001 27.145.025 11.559.023 23.118.012c3.932-.004 7.864-.003 11.795.011q5.402.019 10.802 0a735 735 0 0 1 5.752.02c6.228-.035 10.954-.25 16.401-3.391 4.683-4.806 5.053-8.545 5.239-15.091.566-18.013 6.459-33.57 19.42-46.36C429.944 4.972 440.32-.07 453 0q.141 12.205.207 24.412c.021 3.78.05 7.56.095 11.339.044 3.657.067 7.314.078 10.97q.01 2.08.043 4.158c.227 15.017-3.326 26.089-13.384 37.309-9.185 9.014-20.202 12.566-32.824 12.6l-4.371-.046q-2.378.007-4.755.022c-4.316.019-8.631 0-12.947-.024-4.67-.02-9.339-.004-14.008.006a5817 5817 0 0 1-27.393-.03c-10.64-.03-21.281-.03-31.922-.029-18.987.001-37.974-.026-56.961-.07q-27.62-.064-55.237-.061h-6.871c-20.984.003-41.968-.015-62.952-.042q-11.12-.013-22.239-.013-13.55-.003-27.1-.043-6.91-.023-13.82-.02-6.33.005-12.661-.029a659 659 0 0 0-4.57 0c-14.447.043-26.3-2.541-37.158-12.659C1.502 76.19-.476 63.443-.293 48.145q.009-2.096.013-4.19c.011-3.639.04-7.277.074-10.915.031-3.727.044-7.455.06-11.183C-.115 14.571-.063 7.286 0 0" transform="translate(400 923)"/><path id="minus-bar" fill="#d81722" d="m0 0 3.271-.017 3.59-.004 3.78-.015q5.135-.018 10.27-.024l6.422-.011q10.05-.022 20.1-.027A7309 7309 0 0 0 70.617-.15q8.966-.032 17.931-.033c3.568-.002 7.136-.007 10.703-.025 3.984-.02 7.967-.015 11.95-.009l3.565-.028c7.1.036 12.104.63 18.02 4.787 3.482 3.708 4.445 6.553 4.629 11.66-.355 6.46-2.187 9.722-6.962 14.061-4.959 3.191-10.963 2.431-16.642 2.394l-3.963.021c-3.577.018-7.153.011-10.73-.001-3.748-.01-7.497-.001-11.246.005-6.294.008-12.589-.002-18.883-.021-7.27-.022-14.54-.015-21.81.007q-9.375.026-18.749.01c-3.73-.006-7.458-.007-11.188.007-4.158.013-8.315-.006-12.473-.028l-3.732.025c-6.352-.064-10.488-.139-15.247-4.543-3.676-4.836-4.66-8.567-4.383-14.636.825-5.095 3.457-7.664 7.446-10.676C-7.21.566-4.464.014 0 0" transform="translate(565.211 642.86)"/><path id="right-corner-highlight" fill="#f2f2f2" d="M0 0h50v50H0z" transform="translate(886 348)"/><path id="left-corner-highlight" fill="#f2f2f2" d="M0 0h49v50H0z" transform="translate(318 348)"/><path id="bottom-slot-highlight" fill="#eeeded" d="m0 0 3.793.016L5.806.02q3.195.01 6.39.031l4.321.014c3.539.01 7.077.03 10.616.049v18l146 1v1h-383v-1l206-1v-17c1-1 1-1 3.867-1.114" transform="translate(645.867 1002.886)"/><path id="right-edge-highlight" fill="#e8e8e8" d="M0 0h1l.031 3.32q.147 15.473.308 30.946.084 7.955.158 15.91.072 7.674.156 15.347.031 2.93.056 5.863.037 4.097.086 8.195l.017 2.461C1.855 85.28 1.97 87.908 3 91c-.937 2.188-.937 2.188-2 4l-2-1z" transform="translate(969 327)"/><path id="left-edge-highlight" fill="#eaeaec" d="M0 0h1v62h5l-1 3H0z" transform="translate(400 826)"/><path id="red-detail-left-edge" fill="#df575f" d="M0 0h1v28h-2v7h-1c-.22-11.867-.203-23.295 2-35" transform="translate(479 632)"/><path id="red-detail-upper-left" fill="#da3940" d="m0 0 1 2 3-.625C8.378.721 11.793 1.745 16 3l-1 2-3.562-.437-2.004-.247a199 199 0 0 1-5.59-.816c-4.593-.597-9.157-.848-13.781-1.062l-2.65-.131Q-15.795 2.15-19 2V1z" transform="translate(639 541)"/><path id="badge-gloss-upper" fill="#f4d2d3" d="m0 0 3.77.01 3.894.025L11.63.05q4.83.018 9.66.049v1l-2.447.06c-3.643.095-7.285.204-10.928.315l-3.851.093c-1.212.04-2.424.078-3.672.118l-3.396.095c-2.853.053-2.853.053-4.706 2.319h-4l-1-3C-8.415.275-4.37-.02 0 0" transform="translate(617.71 542.902)"/><path id="badge-gloss-lower-right" fill="#f2e7e5" d="M0 0h2C1.285 4.764.205 9.342-1 14h-1a337 337 0 0 1-.125-4.75l-.07-2.672C-1.991 3.886-1.365 2.301 0 0" transform="translate(736 685)"/><path id="badge-gloss-mid-right" fill="#f7c7c9" d="M0 0h1C2.874 8.47 2.874 8.47.73 12.223-.77 13.933-2.289 15.503-4 17l-2-1 1.938-2.375c2.591-3.298 3.215-5.154 3.625-9.25l.253-2.477z" transform="translate(702 656)"/><path id="badge-gloss-lower-left" fill="#f4e3e4" d="M0 0c1.938.625 1.938.625 4 2 .875 3 .875 3 1 6l-2 2a752 752 0 0 1-1.5-3.875l-.844-2.18C0 2 0 2 0 0" transform="translate(516 693)"/><path id="red-detail-upper-mid" fill="#db464e" d="M0 0c4.776.716 9.382 1.591 14 3l1 3C4.442 2.925 4.442 2.925 0 1z" transform="translate(659 547)"/><path id="badge-gloss-top-mid" fill="#f1dedd" d="M0 0c4.38.52 8.688 1.057 13 2-2.647 1.46-3.894 2-7 2V2L0 3z" transform="translate(642 544)"/><path id="badge-gloss-mid-left" fill="#f3cbcd" d="M0 0c.93 2.606 1.15 3.642.063 6.25L-1 8h-2l-.375 2.438L-4 13l-2 1c1.54-5.015 3.03-9.615 6-14" transform="translate(525 600)"/><path id="badge-gloss-bottom-right" fill="#f2e0de" d="M0 0h3l-4 10h-1c-.25-6.625-.25-6.625 2-10" transform="translate(730 702)"/><path id="red-detail-left-mid" fill="#d7525a" d="M0 0c1.604 4.01.387 7.058-1 11l-2 2c.656-4.485 1.7-8.67 3-13" transform="translate(486 606)"/><path id="red-detail-bottom-left" fill="#df1f2a" d="M0 0h3c2 3 2 3 1.625 5.188L4 7C0 2.25 0 2.25 0 0" transform="translate(494 724)"/></svg>