<?xml version="1.0" encoding="UTF-8"?>
<svg xmlns="http://www.w3.org/2000/svg" version="1.1" viewBox="0 0 105.06 99.27">
  <defs>
    <style>
      .cls-1 {
        fill: #fff;
        fill-rule: evenodd;
      }
    </style>
  </defs>
  <!-- Generator: Adobe Illustrator 28.7.1, SVG Export Plug-In . SVG Version: 1.2.0 Build 142)  -->
  <g>
    <g id="_圖層_1" data-name="圖層_1">
      <path class="cls-1" d="M35.57,14.02v42.92c-2.87.44-5.75.68-8.52.75-3.25.08-6.38.26-9.45.77V21.88c0-.67.41-1.24,1.05-1.46l3.25-1.1v-3.03c0-.67.41-1.24,1.05-1.46l10.28-3.48c.1-.03.19-.02.28.04.08.06.13.15.13.25v3.71l1.94-1.34Z"/>
      <path class="cls-1" d="M39.13,7.66h3.49V1.67c0-.85.69-1.54,1.54-1.54h16.69c.85,0,1.54.69,1.54,1.54v5.99h3.49c.85,0,1.54.69,1.54,1.54v56.7h-7.91c1.97-2.32,3.15-5.14,3.56-8.17.24-1.74.15-3.62-.51-5.27-.64-1.6-1.87-2.99-3.62-3.37-1.73-.38-3.3.48-4.78,1.25-2.28,1.2-4.5,2.31-6.87,3.34-3.02,1.31-6.33,2.26-9.71,2.9V9.2c0-.85.69-1.54,1.54-1.54Z"/>
      <path class="cls-1" d="M87.12,24.57v36.54l-.09.04-.19.08-.09.04c-.69.31-1.37.63-2.03.96l-.09.04-.09.04-.09.04h0s-.17.09-.17.09l-.09.05-.18.09-.09.05-.26.14-.09.05-.26.14-.09.05h0s-.17.09-.17.09l-.09.05-.09.05-.09.05-.04.02-.04.02-.09.05-.08.04-.08.04-.03.02-.05.03-.08.04-.08.04-.08.04h-.02s-.06.04-.06.04l-.08.04-.08.04-.08.04h-.01s-.07.04-.07.04l-.08.04-.08.04-.08.04-.31.17-.03.02-.03.02-.31.16h0s0,0,0,0l-.06.03-.26.13-.04.02h-.02s-.06.04-.06.04l-.26.13h-.01s-.05.03-.05.03l-.07.03-.2.09-.05.02h-.02s-.26.13-.26.13l-.07.03-.06.03h-.01s-.07.04-.07.04l-.13.06-.07.03-.05.02h-.01s-.07.04-.07.04l-.07.03-.14.06-.07.03-.07.03-.07.03-.14.06-.07.03-.12.05h-.01s-.07.03-.07.03l-.07.03-.07.03-.07.03-.12.05h-.02s-.07.04-.07.04l-.07.03-.07.03-.07.03h0s-.07.03-.07.03l-.07.03-.07.03h-7.75V23.03h16.13c.85,0,1.54.69,1.54,1.54h0ZM71.11,23.03h12.31v-2.17c0-.85-.69-1.54-1.54-1.54h-9.23c-.85,0-1.54.69-1.54,1.54v2.17Z"/>
      <path class="cls-1" d="M.9,70.2s4.37-4.58,9.54-6.78c5.17-2.19,10.26-2.74,16.68-2.9,6.42-.16,14.45-1.25,21.31-4.23,6.85-2.98,8.66-4.7,9.91-4.43,1.25.27,2.35,2.31,1.92,5.48-.43,3.17-1.76,5.44-3.13,6.97-1.37,1.53-4.43,3.33-6.97,3.92-2.55.59-4.43,2.66,3.05,3.72,7.48,1.06,19.78-.23,29.57-5.52,9.79-5.29,15.78-6.54,20.17-3.02,4.39,3.52.74,5.48-.27,6.15-1.02.67-21.97,16.49-27.61,19.94-5.64,3.45-16.88,11.12-28.55,8.93-11.67-2.19-18.21-5.17-26.01-5.17s-16.64,4.4-18.71,5.58c-2.06,1.18-1.79-.36-1.79-1.37v-25.23c0-.55.07-1.19.89-2.04Z"/>
    </g>
  </g>
</svg>