<?xml version="1.0" encoding="UTF-8"?>
<svg xmlns="http://www.w3.org/2000/svg" version="1.1" xmlns:xlink="http://www.w3.org/1999/xlink" viewBox="0 0 105.06 99.13">
  <defs>
    <style>
      .cls-1 {
        fill: #fbc3ad;
      }

      .cls-1, .cls-2, .cls-3, .cls-4, .cls-5, .cls-6 {
        fill-rule: evenodd;
      }

      .cls-2 {
        fill: #e48f76;
      }

      .cls-3 {
        fill: url(#GradientFill_3);
      }

      .cls-4 {
        fill: url(#GradientFill_1);
      }

      .cls-5 {
        fill: url(#GradientFill_2);
      }

      .cls-6 {
        fill: #f1ac96;
      }
    </style>
    <linearGradient id="GradientFill_1" data-name="GradientFill 1" x1="27.6" y1="65.76" x2="27.6" y2="13.89" gradientUnits="userSpaceOnUse">
      <stop offset="0" stop-color="#f29100"/>
      <stop offset="1" stop-color="#fcca00"/>
    </linearGradient>
    <linearGradient id="GradientFill_2" data-name="GradientFill 2" x1="52.51" y1="65.76" x2="52.51" y2="7.52" gradientUnits="userSpaceOnUse">
      <stop offset="0" stop-color="#c02c20"/>
      <stop offset="1" stop-color="#e24a0e"/>
    </linearGradient>
    <linearGradient id="GradientFill_3" data-name="GradientFill 3" x1="77.27" y1="65.76" x2="77.27" y2="22.89" gradientUnits="userSpaceOnUse">
      <stop offset="0" stop-color="#00823c"/>
      <stop offset="1" stop-color="#53b332"/>
    </linearGradient>
  </defs>
  <!-- Generator: Adobe Illustrator 28.7.1, SVG Export Plug-In . SVG Version: 1.2.0 Build 142)  -->
  <g>
    <g id="_圖層_1" data-name="圖層_1">
      <g>
        <path class="cls-4" d="M37.59,13.88v51.88h-19.98V21.75c0-.67.41-1.24,1.05-1.46l3.25-1.1v-3.03c0-.67.41-1.24,1.05-1.46l10.28-3.48c.1-.03.19-.02.28.04.08.06.13.15.13.25v3.71l3.96-1.34Z"/>
        <path class="cls-5" d="M39.13,7.52h3.49V1.54c0-.85.69-1.54,1.54-1.54h16.69c.85,0,1.54.69,1.54,1.54v5.99h3.49c.85,0,1.54.69,1.54,1.54v56.7h-29.83V9.06c0-.85.69-1.54,1.54-1.54Z"/>
        <path class="cls-3" d="M87.12,24.43v41.33h-19.69V22.89h18.16c.85,0,1.54.69,1.54,1.54h0ZM71.11,22.89h12.31v-2.17c0-.85-.69-1.54-1.54-1.54h-9.23c-.85,0-1.54.69-1.54,1.54v2.17Z"/>
      </g>
      <g>
        <path class="cls-1" d="M.9,70.06s4.37-4.58,9.54-6.78c5.17-2.19,10.26-2.74,16.69-2.9,6.42-.16,14.45-1.25,21.31-4.23,6.85-2.98,8.66-4.7,9.91-4.43,1.25.27,2.35,2.31,1.92,5.48-.43,3.17-1.76,5.44-3.13,6.97-1.37,1.53-4.43,3.33-6.97,3.92-2.55.59-4.43,2.66,3.05,3.72,7.48,1.06,19.78-.23,29.57-5.52,9.79-5.29,15.78-6.54,20.17-3.02,4.39,3.52.74,5.48-.27,6.15-1.02.67-21.97,16.49-27.61,19.94-5.64,3.45-16.88,11.12-28.55,8.93-11.67-2.19-18.21-5.17-26.01-5.17s-16.64,4.4-18.71,5.58c-2.06,1.18-1.79-.36-1.79-1.37v-25.23c0-.55.07-1.19.89-2.04Z"/>
        <path class="cls-6" d="M99.65,61.6c1.2.31,2.29.87,3.3,1.68,4.39,3.52.74,5.48-.27,6.15-1.02.67-21.97,16.49-27.61,19.94-5.64,3.45-16.88,11.12-28.55,8.93-11.67-2.19-18.21-5.17-26.01-5.17s-16.64,4.4-18.71,5.58c-2.06,1.18-1.79-.36-1.79-1.37v-4.48c2.14-1.31,5.01-2.71,8.73-3.86,9.99-3.09,11.83.26,27.48,2.98,15.65,2.72,21.41-1.62,30.52-6.69,9.11-5.07,23.29-16.05,27.44-18.99,2.14-1.52,4.09-3.31,5.47-4.69Z"/>
        <path class="cls-2" d="M102.51,62.95c.15.11.29.22.44.33,4.39,3.52.74,5.48-.27,6.15-1.02.67-21.97,16.49-27.61,19.94-5.64,3.45-16.88,11.12-28.55,8.93-11.67-2.19-18.21-5.17-26.01-5.17s-16.64,4.4-18.71,5.58c-2.06,1.18-1.79-.36-1.79-1.37v-1.17c1.97-.98,4.81-2.3,8.73-3.94,9.13-3.84,14.48-1.36,25.65,1.55,11.17,2.91,18.41,2.19,27.64-1.46,9.23-3.64,37.48-25.4,39.46-26.95.91-.71,1.09-1.63,1.02-2.42Z"/>
      </g>
    </g>
  </g>
</svg>