<?xml version="1.0" encoding="UTF-8"?>
<svg version="1.1" xmlns="http://www.w3.org/2000/svg" width="1254" height="1254">
<path d="M0 0 C413.82 0 827.64 0 1254 0 C1254 413.82 1254 827.64 1254 1254 C840.18 1254 426.36 1254 0 1254 C0 840.18 0 426.36 0 0 Z " fill="#F9F9F9" transform="translate(0,0)"/>
<path d="M0 0 C1.22530165 -0.00265183 2.45060331 -0.00530365 3.71303532 -0.00803584 C7.12166909 -0.01438636 10.53025252 -0.01626512 13.93888874 -0.01625861 C17.64460486 -0.01732921 21.35031125 -0.02412139 25.05602199 -0.03016531 C32.40947156 -0.04123402 39.76291636 -0.04688784 47.11637279 -0.05087419 C55.92332461 -0.05588558 64.73026719 -0.06661353 73.53721355 -0.07735593 C94.82641701 -0.10298158 116.11562407 -0.11802137 137.40483852 -0.13086639 C144.45736878 -0.13512178 151.50989878 -0.13968753 158.56242871 -0.14444971 C196.07006171 -0.16971203 233.57769515 -0.19175771 271.08533478 -0.20417786 C279.7750718 -0.20709913 288.4648088 -0.21006666 297.15454578 -0.21308327 C298.234125 -0.21345418 299.31370421 -0.21382509 300.42599794 -0.21420723 C335.41693033 -0.22635876 370.40781238 -0.25729632 405.39872113 -0.29900479 C441.37849166 -0.34181365 477.35823561 -0.36842161 513.33803229 -0.37365257 C518.42242184 -0.37439299 523.50681133 -0.37530367 528.59120083 -0.37631035 C530.09213692 -0.37659627 530.09213692 -0.37659627 531.62339495 -0.37688797 C547.71103375 -0.38039822 563.7986094 -0.40068087 579.88622503 -0.42710699 C596.06611621 -0.4532833 612.2459346 -0.46096565 628.42584392 -0.4500057 C638.03119446 -0.44404 647.63629767 -0.45188195 657.24161066 -0.47983653 C663.66829737 -0.4971515 670.09481636 -0.49608653 676.52150686 -0.48046885 C680.17658832 -0.47209792 683.83119951 -0.47132765 687.48623642 -0.4930803 C712.28099417 -0.63159107 732.43235652 1.73199086 751.99219227 18.13701439 C752.73211414 18.71967064 753.47203602 19.30232689 754.23437977 19.90263939 C767.48966435 30.81875611 776.08179301 47.34358621 778.99219227 64.13701439 C779.54370351 70.63188917 779.41351305 77.16829699 779.396245 83.68071556 C779.40195683 85.63517711 779.40892422 87.58963533 779.41704273 89.54408836 C779.43490343 94.82332504 779.43381864 100.10239484 779.42810035 105.38165259 C779.42499695 109.80454861 779.431114 114.2274131 779.43713909 118.65030462 C779.45116066 129.09520164 779.44964393 139.54001684 779.43823719 149.98491478 C779.42676971 160.72196105 779.44081412 171.45875714 779.46763366 182.19577044 C779.48986808 191.44717473 779.49641033 200.69850093 779.49055725 209.94993001 C779.48720357 215.46068299 779.48949578 220.97127583 779.50680828 226.48200607 C779.52239824 231.67046911 779.51818962 236.85856507 779.49950314 242.04701424 C779.49584977 243.93786301 779.49882921 245.82873971 779.50938892 247.71956253 C779.6282853 270.79322658 774.72049843 290.32489459 758.61719227 307.69951439 C757.75094227 308.50388939 756.88469227 309.30826439 755.99219227 310.13701439 C755.33477039 310.75318626 754.67734852 311.36935814 754.00000477 312.00420189 C739.51354903 325.28763016 723.32266905 331.3241121 703.67236805 331.25053978 C702.64736698 331.25068581 701.62236591 331.25083183 700.56630421 331.25098228 C697.19001594 331.25028755 693.81378336 331.24251567 690.43750477 331.23467064 C688.09195454 331.2328049 685.74640392 331.23138173 683.40085316 331.23038292 C677.23595568 331.22657001 671.07108188 331.21675018 664.90619373 331.20567894 C658.6119465 331.19543846 652.31769543 331.19087965 646.02344227 331.18584251 C633.67968189 331.17512682 621.33593905 331.15806512 608.99219227 331.13701439 C608.99276185 332.42393521 608.99276185 332.42393521 608.99334294 333.73685443 C609.01579993 384.76908454 609.03291846 435.80131411 609.0432576 486.83354818 C609.04450806 492.9832062 609.04580241 499.1328642 609.04712391 505.2825222 C609.04738622 506.50662906 609.04764853 507.73073593 609.04791879 508.99193694 C609.05225094 528.72203635 609.06012478 548.4521328 609.06934506 568.18223046 C609.07875025 588.47971583 609.0842623 608.77719966 609.08628076 629.07468712 C609.08764184 641.56410835 609.0919146 654.05352121 609.10010874 666.54293986 C609.10546121 675.14798757 609.10697761 683.75303106 609.10569365 692.35808031 C609.1050633 697.29683902 609.10591502 702.23558327 609.11139774 707.17433929 C609.12322481 718.60471933 609.10233682 730.03423647 609.01301518 741.46430892 C608.99878793 743.29043405 608.98556329 745.11656719 608.97320518 746.94270593 C608.93297266 752.67015558 608.86939608 758.39661481 608.77600002 764.12345172 C608.74927203 765.91623076 608.7286711 767.70911443 608.71498961 769.50204049 C608.59768919 783.59296689 606.99270439 796.70231975 600.30469227 809.38701439 C599.96365467 810.04830345 599.62261707 810.70959251 599.271245 811.39092064 C589.85056223 829.00526737 574.8696934 839.89358989 556.58594227 847.09404564 C546.17662774 850.11500975 535.8050001 850.42872014 525.04744434 850.40443993 C523.46115313 850.40818326 521.87486376 850.41278749 520.28857726 850.41817057 C515.95888252 850.43033146 511.62926546 850.43014832 507.29955757 850.42778182 C502.61840604 850.4273719 497.93727884 850.43842945 493.2561388 850.44789696 C484.09592538 850.46446975 474.9357377 850.47000481 465.77551053 850.47112171 C458.32551918 850.47207392 450.87553628 850.47619281 443.4255476 850.48252296 C422.27760892 850.50012491 401.1296905 850.50936343 379.98174445 850.50786202 C378.84300229 850.5077821 377.70426013 850.50770219 376.53101063 850.50761986 C375.39086924 850.5075381 374.25072784 850.50745634 373.07603671 850.5073721 C354.60368329 850.50655941 336.13141145 850.52569556 317.65908162 850.55389659 C298.6664954 850.58266183 279.67394893 850.5964349 260.6813404 850.59470904 C250.02860865 850.59404642 239.37596245 850.59948274 228.72325039 850.62106514 C219.65285821 850.63932484 210.58259035 850.64358502 201.5121877 850.63004629 C196.89027804 850.62354088 192.26860656 850.62331111 187.64671993 850.64075279 C183.40437819 850.65659662 179.16246124 850.65350602 174.92012914 850.63618453 C173.39664033 850.63313932 171.8731189 850.63665187 170.3496686 850.64790468 C156.59880052 850.74263578 142.33394581 848.9862511 130.17969227 842.07451439 C129.48303455 841.69093773 128.78637684 841.30736107 128.06860828 840.91216087 C109.62071069 830.30838485 98.30359372 812.92011269 91.71875477 793.05107689 C90.15665599 786.78588501 89.84509298 780.5412928 89.86914444 774.10919762 C89.8679906 773.33851033 89.86683675 772.56782304 89.86564794 771.7737816 C89.86300836 769.20025703 89.86748143 766.62679547 89.87193775 764.05327415 C89.87150151 762.1860846 89.87062562 760.3188951 89.86934859 758.45170593 C89.86711411 753.32766311 89.87111061 748.20364121 89.87612665 743.07960105 C89.88044597 737.55140099 89.87898367 732.02320211 89.87822437 726.49500084 C89.87770008 716.91926863 89.88083702 707.34354323 89.88646221 697.76781273 C89.89458999 683.92292079 89.89719375 670.07803215 89.8984502 656.23313808 C89.90063871 633.77059364 89.90728475 611.30805277 89.91675282 588.84551048 C89.92593941 567.0255237 89.93302197 545.20553788 89.93726063 523.38554955 C89.93739215 522.71278254 89.93752368 522.04001553 89.93765919 521.34686165 C89.93897773 514.59056525 89.94025354 507.83426884 89.94149805 501.07797242 C89.95193643 444.43098386 89.96958025 387.78399932 89.99219227 331.13701439 C88.69752537 331.14589684 87.40285847 331.15477928 86.06895924 331.16393089 C73.81513211 331.24532953 61.56136049 331.30512931 49.30732346 331.34426308 C43.00872355 331.36505908 36.71034345 331.39322995 30.41187 331.4387722 C24.3234395 331.48251577 18.23521927 331.50621143 12.14664364 331.51652336 C9.83403245 331.52386381 7.52143161 331.53819669 5.20891094 331.55993462 C-17.33159077 331.76322068 -35.57727521 328.69793534 -53.00780773 313.13701439 C-54.14862804 312.13734642 -54.14862804 312.13734642 -55.31249523 311.11748314 C-70.46691904 296.98558966 -78.31272088 277.20443609 -79.28479671 256.6596241 C-79.42977364 251.74578351 -79.41422257 246.83322028 -79.39599133 241.91777611 C-79.40006744 240.04652668 -79.4054151 238.17527965 -79.4119215 236.30403709 C-79.42547546 231.27108597 -79.42034677 226.23832151 -79.41078424 221.20536757 C-79.40312754 215.91086015 -79.41024959 210.61636748 -79.41494274 205.32185936 C-79.42038197 196.43713609 -79.41325601 187.55248794 -79.39892101 178.66777611 C-79.38258801 168.42708444 -79.38789519 158.18657194 -79.40440023 147.94588459 C-79.4180555 139.11652601 -79.41991536 130.28722107 -79.41208422 121.45785534 C-79.40743115 116.20047645 -79.40671741 110.94318153 -79.41669369 105.68580818 C-79.42542053 100.74275595 -79.41923801 95.79993273 -79.40201092 90.85690498 C-79.39807684 89.05348654 -79.39912661 87.2500485 -79.40579891 85.44663811 C-79.48965708 60.45943533 -73.2667321 39.81994242 -56.00780773 21.13701439 C-40.1840924 6.11789475 -21.52810294 -0.0225804 0 0 Z " fill="#F8F8F8" transform="translate(277.0078077316284,204.8629856109619)"/>
<path d="M0 0 C1.22530165 -0.00265183 2.45060331 -0.00530365 3.71303532 -0.00803584 C7.12166909 -0.01438636 10.53025252 -0.01626512 13.93888874 -0.01625861 C17.64460486 -0.01732921 21.35031125 -0.02412139 25.05602199 -0.03016531 C32.40947156 -0.04123402 39.76291636 -0.04688784 47.11637279 -0.05087419 C55.92332461 -0.05588558 64.73026719 -0.06661353 73.53721355 -0.07735593 C94.82641701 -0.10298158 116.11562407 -0.11802137 137.40483852 -0.13086639 C144.45736878 -0.13512178 151.50989878 -0.13968753 158.56242871 -0.14444971 C196.07006171 -0.16971203 233.57769515 -0.19175771 271.08533478 -0.20417786 C279.7750718 -0.20709913 288.4648088 -0.21006666 297.15454578 -0.21308327 C298.234125 -0.21345418 299.31370421 -0.21382509 300.42599794 -0.21420723 C335.41693033 -0.22635876 370.40781238 -0.25729632 405.39872113 -0.29900479 C441.37849166 -0.34181365 477.35823561 -0.36842161 513.33803229 -0.37365257 C518.42242184 -0.37439299 523.50681133 -0.37530367 528.59120083 -0.37631035 C530.09213692 -0.37659627 530.09213692 -0.37659627 531.62339495 -0.37688797 C547.71103375 -0.38039822 563.7986094 -0.40068087 579.88622503 -0.42710699 C596.06611621 -0.4532833 612.2459346 -0.46096565 628.42584392 -0.4500057 C638.03119446 -0.44404 647.63629767 -0.45188195 657.24161066 -0.47983653 C663.66829737 -0.4971515 670.09481636 -0.49608653 676.52150686 -0.48046885 C680.17658832 -0.47209792 683.83119951 -0.47132765 687.48623642 -0.4930803 C712.28099417 -0.63159107 732.43235652 1.73199086 751.99219227 18.13701439 C752.73211414 18.71967064 753.47203602 19.30232689 754.23437977 19.90263939 C767.48966435 30.81875611 776.08179301 47.34358621 778.99219227 64.13701439 C779.54370351 70.63188917 779.41351305 77.16829699 779.396245 83.68071556 C779.40195683 85.63517711 779.40892422 87.58963533 779.41704273 89.54408836 C779.43490343 94.82332504 779.43381864 100.10239484 779.42810035 105.38165259 C779.42499695 109.80454861 779.431114 114.2274131 779.43713909 118.65030462 C779.45116066 129.09520164 779.44964393 139.54001684 779.43823719 149.98491478 C779.42676971 160.72196105 779.44081412 171.45875714 779.46763366 182.19577044 C779.48986808 191.44717473 779.49641033 200.69850093 779.49055725 209.94993001 C779.48720357 215.46068299 779.48949578 220.97127583 779.50680828 226.48200607 C779.52239824 231.67046911 779.51818962 236.85856507 779.49950314 242.04701424 C779.49584977 243.93786301 779.49882921 245.82873971 779.50938892 247.71956253 C779.6282853 270.79322658 774.72049843 290.32489459 758.61719227 307.69951439 C757.75094227 308.50388939 756.88469227 309.30826439 755.99219227 310.13701439 C755.33477039 310.75318626 754.67734852 311.36935814 754.00000477 312.00420189 C739.51354903 325.28763016 723.32266905 331.3241121 703.67236805 331.25053978 C702.64736698 331.25068581 701.62236591 331.25083183 700.56630421 331.25098228 C697.19001594 331.25028755 693.81378336 331.24251567 690.43750477 331.23467064 C688.09195454 331.2328049 685.74640392 331.23138173 683.40085316 331.23038292 C677.23595568 331.22657001 671.07108188 331.21675018 664.90619373 331.20567894 C658.6119465 331.19543846 652.31769543 331.19087965 646.02344227 331.18584251 C633.67968189 331.17512682 621.33593905 331.15806512 608.99219227 331.13701439 C608.99276185 332.42393521 608.99276185 332.42393521 608.99334294 333.73685443 C609.01579993 384.76908454 609.03291846 435.80131411 609.0432576 486.83354818 C609.04450806 492.9832062 609.04580241 499.1328642 609.04712391 505.2825222 C609.04738622 506.50662906 609.04764853 507.73073593 609.04791879 508.99193694 C609.05225094 528.72203635 609.06012478 548.4521328 609.06934506 568.18223046 C609.07875025 588.47971583 609.0842623 608.77719966 609.08628076 629.07468712 C609.08764184 641.56410835 609.0919146 654.05352121 609.10010874 666.54293986 C609.10546121 675.14798757 609.10697761 683.75303106 609.10569365 692.35808031 C609.1050633 697.29683902 609.10591502 702.23558327 609.11139774 707.17433929 C609.12322481 718.60471933 609.10233682 730.03423647 609.01301518 741.46430892 C608.99878793 743.29043405 608.98556329 745.11656719 608.97320518 746.94270593 C608.93297266 752.67015558 608.86939608 758.39661481 608.77600002 764.12345172 C608.74927203 765.91623076 608.7286711 767.70911443 608.71498961 769.50204049 C608.59768919 783.59296689 606.99270439 796.70231975 600.30469227 809.38701439 C599.96365467 810.04830345 599.62261707 810.70959251 599.271245 811.39092064 C589.85056223 829.00526737 574.8696934 839.89358989 556.58594227 847.09404564 C546.17662774 850.11500975 535.8050001 850.42872014 525.04744434 850.40443993 C523.46115313 850.40818326 521.87486376 850.41278749 520.28857726 850.41817057 C515.95888252 850.43033146 511.62926546 850.43014832 507.29955757 850.42778182 C502.61840604 850.4273719 497.93727884 850.43842945 493.2561388 850.44789696 C484.09592538 850.46446975 474.9357377 850.47000481 465.77551053 850.47112171 C458.32551918 850.47207392 450.87553628 850.47619281 443.4255476 850.48252296 C422.27760892 850.50012491 401.1296905 850.50936343 379.98174445 850.50786202 C378.84300229 850.5077821 377.70426013 850.50770219 376.53101063 850.50761986 C375.39086924 850.5075381 374.25072784 850.50745634 373.07603671 850.5073721 C354.60368329 850.50655941 336.13141145 850.52569556 317.65908162 850.55389659 C298.6664954 850.58266183 279.67394893 850.5964349 260.6813404 850.59470904 C250.02860865 850.59404642 239.37596245 850.59948274 228.72325039 850.62106514 C219.65285821 850.63932484 210.58259035 850.64358502 201.5121877 850.63004629 C196.89027804 850.62354088 192.26860656 850.62331111 187.64671993 850.64075279 C183.40437819 850.65659662 179.16246124 850.65350602 174.92012914 850.63618453 C173.39664033 850.63313932 171.8731189 850.63665187 170.3496686 850.64790468 C156.59880052 850.74263578 142.33394581 848.9862511 130.17969227 842.07451439 C129.48303455 841.69093773 128.78637684 841.30736107 128.06860828 840.91216087 C109.62071069 830.30838485 98.30359372 812.92011269 91.71875477 793.05107689 C90.15665599 786.78588501 89.84509298 780.5412928 89.86914444 774.10919762 C89.8679906 773.33851033 89.86683675 772.56782304 89.86564794 771.7737816 C89.86300836 769.20025703 89.86748143 766.62679547 89.87193775 764.05327415 C89.87150151 762.1860846 89.87062562 760.3188951 89.86934859 758.45170593 C89.86711411 753.32766311 89.87111061 748.20364121 89.87612665 743.07960105 C89.88044597 737.55140099 89.87898367 732.02320211 89.87822437 726.49500084 C89.87770008 716.91926863 89.88083702 707.34354323 89.88646221 697.76781273 C89.89458999 683.92292079 89.89719375 670.07803215 89.8984502 656.23313808 C89.90063871 633.77059364 89.90728475 611.30805277 89.91675282 588.84551048 C89.92593941 567.0255237 89.93302197 545.20553788 89.93726063 523.38554955 C89.93739215 522.71278254 89.93752368 522.04001553 89.93765919 521.34686165 C89.93897773 514.59056525 89.94025354 507.83426884 89.94149805 501.07797242 C89.95193643 444.43098386 89.96958025 387.78399932 89.99219227 331.13701439 C88.69752537 331.14589684 87.40285847 331.15477928 86.06895924 331.16393089 C73.81513211 331.24532953 61.56136049 331.30512931 49.30732346 331.34426308 C43.00872355 331.36505908 36.71034345 331.39322995 30.41187 331.4387722 C24.3234395 331.48251577 18.23521927 331.50621143 12.14664364 331.51652336 C9.83403245 331.52386381 7.52143161 331.53819669 5.20891094 331.55993462 C-17.33159077 331.76322068 -35.57727521 328.69793534 -53.00780773 313.13701439 C-54.14862804 312.13734642 -54.14862804 312.13734642 -55.31249523 311.11748314 C-70.46691904 296.98558966 -78.31272088 277.20443609 -79.28479671 256.6596241 C-79.42977364 251.74578351 -79.41422257 246.83322028 -79.39599133 241.91777611 C-79.40006744 240.04652668 -79.4054151 238.17527965 -79.4119215 236.30403709 C-79.42547546 231.27108597 -79.42034677 226.23832151 -79.41078424 221.20536757 C-79.40312754 215.91086015 -79.41024959 210.61636748 -79.41494274 205.32185936 C-79.42038197 196.43713609 -79.41325601 187.55248794 -79.39892101 178.66777611 C-79.38258801 168.42708444 -79.38789519 158.18657194 -79.40440023 147.94588459 C-79.4180555 139.11652601 -79.41991536 130.28722107 -79.41208422 121.45785534 C-79.40743115 116.20047645 -79.40671741 110.94318153 -79.41669369 105.68580818 C-79.42542053 100.74275595 -79.41923801 95.79993273 -79.40201092 90.85690498 C-79.39807684 89.05348654 -79.39912661 87.2500485 -79.40579891 85.44663811 C-79.48965708 60.45943533 -73.2667321 39.81994242 -56.00780773 21.13701439 C-40.1840924 6.11789475 -21.52810294 -0.0225804 0 0 Z M122.99219227 142.13701439 C122.99219227 321.65701439 122.99219227 501.17701439 122.99219227 686.13701439 C126.95219227 686.79701439 130.91219227 687.45701439 134.99219227 688.13701439 C137.46386855 688.72973676 139.92615657 689.36610193 142.36719227 690.07451439 C143.48867664 690.39291283 144.61016102 690.71131126 145.76562977 691.03935814 C148.99219227 692.13701439 148.99219227 692.13701439 152.15625477 693.76592064 C155.06739411 695.42719384 155.06739411 695.42719384 158.99219227 695.13701439 C158.99219227 695.79701439 158.99219227 696.45701439 158.99219227 697.13701439 C160.74454305 698.22395362 162.54726677 699.2299571 164.36719227 700.19951439 C170.71204479 703.78768954 175.80636412 708.05004952 180.99219227 713.13701439 C181.81074696 713.92205345 182.62930164 714.70709251 183.47266102 715.51592064 C197.76161844 730.38086704 202.72254156 746.8561735 206.99219227 767.13701439 C301.70219227 767.13701439 396.41219227 767.13701439 493.99219227 767.13701439 C495.47719227 759.21701439 495.47719227 759.21701439 496.99219227 751.13701439 C503.7164153 728.78886137 518.25285945 708.62341411 538.99219227 697.13701439 C551.19809784 691.22251383 562.54962369 688.37744249 575.99219227 686.13701439 C575.99219227 506.61701439 575.99219227 327.09701439 575.99219227 142.13701439 C426.50219227 142.13701439 277.01219227 142.13701439 122.99219227 142.13701439 Z " fill="#030202" transform="translate(277.0078077316284,204.8629856109619)"/>
<path d="M0 0 C1.8306156 -0.00480972 1.8306156 -0.00480972 3.69821334 -0.0097166 C7.08847345 -0.01659175 10.4785144 -0.01451089 13.86876231 -0.00866088 C17.55611809 -0.00449131 21.24345362 -0.01189211 24.93080449 -0.01781338 C31.39440506 -0.02658129 37.85797394 -0.0278854 44.32157898 -0.02431011 C53.93331541 -0.01900748 63.54502113 -0.02509402 73.15675422 -0.03339304 C91.32169777 -0.04864555 109.4866274 -0.0503368 127.65157601 -0.04787002 C141.67830128 -0.0460383 155.70502198 -0.04779442 169.73174667 -0.05209446 C171.74602517 -0.05269686 173.76030367 -0.05329806 175.77458216 -0.05389806 C178.80981656 -0.0548053 181.84505095 -0.05571397 184.88028535 -0.05663041 C213.10649009 -0.06506198 241.3326931 -0.06939426 269.55889893 -0.06522369 C270.6233188 -0.06506732 271.68773867 -0.06491094 272.78441369 -0.06474983 C278.1794658 -0.06394403 283.57451791 -0.06309826 288.96957001 -0.06223653 C290.57681553 -0.06197989 290.57681553 -0.06197989 292.21653065 -0.06171808 C294.38335914 -0.06137142 296.55018764 -0.06102289 298.71701613 -0.06067249 C332.43214937 -0.0553154 366.14725644 -0.06324454 399.8623848 -0.08170605 C437.73188526 -0.10241803 475.60136953 -0.11315024 513.47087598 -0.10913056 C517.5081706 -0.10873521 521.54546523 -0.10837366 525.58275986 -0.10803318 C526.57686105 -0.10794245 527.57096224 -0.10785172 528.59518771 -0.10775824 C543.6083808 -0.1065918 558.62155754 -0.11324413 573.63474655 -0.1238451 C590.70824677 -0.1358885 607.78171096 -0.13746603 624.8552117 -0.12505493 C634.41108451 -0.11841961 643.96687119 -0.12007288 653.52273713 -0.13364345 C659.90620816 -0.1418782 666.28961455 -0.13920308 672.67308031 -0.12766818 C676.3099286 -0.12140206 679.94660864 -0.11983587 683.58344731 -0.13153151 C687.50451786 -0.1440251 691.42533177 -0.13323942 695.34640503 -0.12025452 C696.47063566 -0.12756386 697.5948663 -0.13487321 698.75316453 -0.14240405 C712.27976549 -0.04939207 723.28307818 3.62000717 733.1748848 12.94197559 C737.63573736 17.58985148 740.60505049 22.2615703 742.9248848 28.25447559 C743.26870508 29.1293078 743.61252537 30.00414001 743.96676445 30.90548229 C745.06669466 34.75015475 745.2091339 38.2994355 745.19231033 42.26024342 C745.19684145 43.04911233 745.20137256 43.83798125 745.20604098 44.65075529 C745.2186666 47.28516099 745.21706578 49.91935946 745.21541214 52.553792 C745.22139869 54.44651523 745.22820453 56.33923603 745.23576736 58.23195362 C745.25342541 63.36861694 745.25812277 68.50521361 745.25939894 73.64190435 C745.26082163 76.85453863 745.26509357 80.06715603 745.27039337 83.27978611 C745.28889565 94.49775993 745.29706406 105.71568624 745.29549026 116.93367481 C745.29429003 127.37303599 745.31536882 137.81219003 745.34697759 148.25149882 C745.37317993 157.22668985 745.38385584 166.20181341 745.38257945 175.17704237 C745.38207082 180.53180147 745.38769877 185.88637661 745.40893555 191.24109745 C745.42838363 196.28253455 745.42839757 201.3236135 745.41390228 206.36506367 C745.41182096 208.2080243 745.41647441 210.05100772 745.4286232 211.89392948 C745.52184452 227.02401865 743.71513986 239.94119192 732.88972855 251.41072559 C725.84714126 258.06826843 717.46310133 263.38683927 707.53358841 263.37473011 C706.66143188 263.37610477 705.78927536 263.37747944 704.89068985 263.37889576 C703.94194489 263.37530048 702.99319992 263.37170521 702.01570511 263.36800098 C701.01050323 263.36814701 700.00530136 263.36829304 698.96963882 263.36844349 C695.64740719 263.36774688 692.32523164 263.35996617 689.0030098 263.35213184 C686.69944159 263.35026677 684.39587298 263.34884329 682.09230423 263.34784412 C676.02930481 263.34402597 669.96632934 263.33420163 663.90333939 263.32314014 C656.62875234 263.31111249 649.35415728 263.30652044 642.07956314 263.30068684 C631.02798703 263.29098954 619.97646348 263.27182804 608.9248848 263.25447559 C608.9248848 239.82447559 608.9248848 216.39447559 608.9248848 192.25447559 C643.4248848 192.06697559 643.4248848 192.06697559 654.27840042 192.04671192 C657.51690002 192.01679768 657.51690002 192.01679768 660.75532913 191.98035145 C662.1865907 191.96735815 663.61796103 191.96399125 665.04927444 191.96851063 C675.76236671 192.09926227 675.76236671 192.09926227 685.44771194 188.00696278 C690.04619097 182.55142279 690.36567845 176.83309657 690.32893753 170.01790333 C690.33580078 169.11943684 690.34266403 168.22097034 690.34973526 167.2952776 C690.36794979 164.34271147 690.36417425 161.39067927 690.35847855 158.43806934 C690.36304207 156.37736305 690.36834815 154.31665827 690.37436295 152.2559557 C690.38328291 147.94460826 690.38088257 143.63344619 690.37092972 139.32210255 C690.35942637 133.80171481 690.37967838 128.28196543 690.40884686 122.76166153 C690.42720289 118.5090985 690.42691782 114.25668874 690.42120934 110.00409603 C690.42105613 107.96876154 690.42709985 105.93341665 690.43950081 103.89811993 C690.45440201 101.05222433 690.44374097 98.20751224 690.42659378 95.36165333 C690.44109573 94.10607876 690.44109573 94.10607876 690.45589066 92.82513905 C690.38894356 87.51078041 689.47055583 84.45736481 685.9248848 80.25447559 C684.9348848 79.59447559 683.9448848 78.93447559 682.9248848 78.25447559 C682.9248848 77.59447559 682.9248848 76.93447559 682.9248848 76.25447559 C619.70586603 76.2030718 556.48684482 76.15537135 493.26781082 76.12744617 C491.86495474 76.12682492 491.86495474 76.12682492 490.43375814 76.12619111 C470.10992212 76.11721298 449.78608587 76.10890235 429.4622493 76.10127961 C419.49585562 76.0975375 409.52946199 76.09364785 399.56306839 76.08968067 C398.5712774 76.08928839 397.5794864 76.08889612 396.55764114 76.08849195 C364.3943699 76.07570142 332.23111445 76.05316265 300.06785278 76.02558393 C267.02377093 75.99730131 233.97969782 75.97882278 200.93560408 75.97273062 C196.27140296 75.97186612 191.60720187 75.97088921 186.94300079 75.96984386 C186.02499341 75.9696416 185.10698603 75.96943933 184.16116024 75.96923093 C169.36682776 75.96568185 154.57252225 75.95175711 139.77820078 75.93397949 C124.91517885 75.91633976 110.05218373 75.90956613 95.18915169 75.91397146 C86.35211419 75.91625811 77.51517461 75.91012621 68.67815474 75.89208296 C62.77998124 75.88085993 56.8818721 75.88046578 50.98369421 75.88898015 C47.61974808 75.89352314 44.25613888 75.89161531 40.89218764 75.87982605 C37.27232849 75.86787233 33.65295674 75.87422378 30.03310585 75.88533211 C28.45882091 75.87351055 28.45882091 75.87351055 26.85273224 75.86145017 C21.45966998 75.89911763 17.55734407 76.16679915 12.9248848 79.25447559 C7.97710428 84.6034275 7.76737481 88.98051147 7.7320137 96.00520802 C7.72383621 96.89987782 7.71565872 97.79454762 7.70723343 98.71632862 C7.6823967 101.68086041 7.66586647 104.64534432 7.6514473 107.60994434 C7.64346178 109.12988215 7.64346178 109.12988215 7.63531494 110.68052578 C7.60858897 116.04541867 7.58921355 121.41028836 7.57478714 126.77522755 C7.56145434 131.21098449 7.53361278 135.64628072 7.49275589 140.08186817 C7.44339208 145.44109428 7.4186612 150.79990283 7.41156006 156.15934658 C7.40485471 158.19864744 7.38965136 160.23793924 7.36566925 162.2771101 C7.33395248 165.13748747 7.33399095 167.99626254 7.3413887 170.85677052 C7.32498337 171.69291386 7.30857803 172.5290572 7.29167557 173.39053822 C7.35579136 179.47323301 8.97637156 183.59583106 12.9248848 188.25447559 C16.81514062 191.49347886 20.03013844 191.64262172 25.01008987 191.68684864 C25.71445773 191.69712243 26.41882559 191.70739622 27.14453793 191.71798134 C29.41125269 191.74773056 31.67753351 191.75738906 33.94441605 191.76619434 C35.3491758 191.78166918 36.75392161 191.79846761 38.15864944 191.81660938 C43.35140753 191.87442449 48.54442492 191.90666488 53.7373848 191.94197559 C71.1551973 192.09666309 71.1551973 192.09666309 88.9248848 192.25447559 C88.9248848 215.68447559 88.9248848 239.11447559 88.9248848 263.25447559 C63.66079145 263.41491083 63.66079145 263.41491083 52.84871292 263.44978809 C45.48604603 263.47365134 38.12357912 263.50180887 30.76106644 263.55623341 C24.82178246 263.59985994 18.88271309 263.62364834 12.94328117 263.63398457 C10.68318494 263.64134578 8.42309976 263.65572022 6.16309547 263.67739582 C2.98472433 263.70665277 -0.19277255 263.71042225 -3.37125778 263.70857716 C-4.29483582 263.72295826 -5.21841385 263.73733936 -6.1699791 263.75215626 C-17.10749249 263.68395138 -26.17915473 259.7765743 -34.0751152 252.25447559 C-45.7724657 240.20337458 -46.81333946 226.79931802 -46.69034958 210.94514942 C-46.69385723 209.02844217 -46.69952303 207.11173784 -46.70716476 205.19504261 C-46.72132689 200.02568808 -46.70443738 194.85687096 -46.68087959 189.68756795 C-46.66066786 184.26038495 -46.66665535 178.83322203 -46.66898727 173.40601063 C-46.66893383 164.29819927 -46.64924855 155.19059623 -46.61710739 146.08284473 C-46.58018694 135.57003542 -46.5714378 125.05749842 -46.5784049 114.54463273 C-46.58472015 104.40462482 -46.57393882 94.26470973 -46.55443954 84.12472057 C-46.54628925 79.82074308 -46.5435516 75.51681319 -46.54513168 71.21282864 C-46.54601367 66.14258466 -46.53171005 61.07259755 -46.50590515 56.00242138 C-46.49877303 54.14734487 -46.49664541 52.29224097 -46.50002289 50.43715382 C-46.52277266 34.99066046 -45.06717824 23.61784464 -33.89933395 11.98885059 C-23.65080423 2.43063634 -13.73480233 -0.05326844 0 0 Z " fill="#F7F7F7" transform="translate(278.0751152038574,238.7455244064331)"/>
<path d="M0 0 C8.81968463 6.90551125 17.26338297 14.27763976 24.25 23.0625 C25.04664063 24.03703125 25.84328125 25.0115625 26.6640625 26.015625 C39.81164451 42.64749733 49.70073139 62.33022369 54.25 83.0625 C54.51272705 84.24352295 54.7754541 85.4245459 55.04614258 86.64135742 C57.07187001 96.22957687 57.77438756 105.46493566 57.6875 115.25 C57.68512329 115.96217682 57.68274658 116.67435364 57.68029785 117.40811157 C57.61682248 129.63548071 56.35543904 141.21831252 53.25 153.0625 C53.07919922 153.74844238 52.90839844 154.43438477 52.73242188 155.14111328 C46.36756735 180.54437088 32.1099639 202.31476012 14.25 221.0625 C13.53328125 221.84367188 12.8165625 222.62484375 12.078125 223.4296875 C-1.43753181 237.70750541 -19.08583035 247.8722834 -37.34765625 254.7734375 C-40.76789725 256.02309025 -40.76789725 256.02309025 -44.05859375 257.59375 C-48.56372646 259.38626841 -52.9972422 260.30079146 -57.75 261.1875 C-58.61367188 261.35636719 -59.47734375 261.52523438 -60.3671875 261.69921875 C-62.82492193 262.17358391 -65.28595769 262.62224794 -67.75 263.0625 C-68.81992187 263.26101563 -69.88984375 263.45953125 -70.9921875 263.6640625 C-109.38761165 267.735095 -149.44232712 259.61059485 -180.12890625 235.265625 C-184.44650093 231.63652903 -188.65641595 227.94359267 -192.75 224.0625 C-193.70777344 223.16917969 -194.66554688 222.27585937 -195.65234375 221.35546875 C-223.40950935 194.95066748 -239.07600028 156.19452519 -240.09912109 118.109375 C-240.23640836 103.93511239 -237.78152698 90.62912789 -234.3125 76.9375 C-234.11954346 76.16776855 -233.92658691 75.39803711 -233.7277832 74.60498047 C-232.50225585 70.02561489 -230.85195353 65.99346634 -228.64477539 61.80029297 C-227.6224855 59.81484701 -226.8967288 57.80302819 -226.1875 55.6875 C-221.42599808 43.52967297 -213.37184843 31.78567943 -204.75 22.0625 C-204.10708008 21.32338379 -204.10708008 21.32338379 -203.45117188 20.56933594 C-151.85585657 -38.52488124 -62.74861057 -47.87065102 0 0 Z " fill="#F9F7F7" transform="translate(716.75,540.9375)"/>
<path d="M0 0 C8.81968463 6.90551125 17.26338297 14.27763976 24.25 23.0625 C25.04664063 24.03703125 25.84328125 25.0115625 26.6640625 26.015625 C39.81164451 42.64749733 49.70073139 62.33022369 54.25 83.0625 C54.51272705 84.24352295 54.7754541 85.4245459 55.04614258 86.64135742 C57.07187001 96.22957687 57.77438756 105.46493566 57.6875 115.25 C57.68512329 115.96217682 57.68274658 116.67435364 57.68029785 117.40811157 C57.61682248 129.63548071 56.35543904 141.21831252 53.25 153.0625 C53.07919922 153.74844238 52.90839844 154.43438477 52.73242188 155.14111328 C46.36756735 180.54437088 32.1099639 202.31476012 14.25 221.0625 C13.53328125 221.84367188 12.8165625 222.62484375 12.078125 223.4296875 C-1.43753181 237.70750541 -19.08583035 247.8722834 -37.34765625 254.7734375 C-40.76789725 256.02309025 -40.76789725 256.02309025 -44.05859375 257.59375 C-48.56372646 259.38626841 -52.9972422 260.30079146 -57.75 261.1875 C-58.61367188 261.35636719 -59.47734375 261.52523438 -60.3671875 261.69921875 C-62.82492193 262.17358391 -65.28595769 262.62224794 -67.75 263.0625 C-68.81992187 263.26101563 -69.88984375 263.45953125 -70.9921875 263.6640625 C-109.38761165 267.735095 -149.44232712 259.61059485 -180.12890625 235.265625 C-184.44650093 231.63652903 -188.65641595 227.94359267 -192.75 224.0625 C-193.70777344 223.16917969 -194.66554688 222.27585937 -195.65234375 221.35546875 C-223.40950935 194.95066748 -239.07600028 156.19452519 -240.09912109 118.109375 C-240.23640836 103.93511239 -237.78152698 90.62912789 -234.3125 76.9375 C-234.11954346 76.16776855 -233.92658691 75.39803711 -233.7277832 74.60498047 C-232.50225585 70.02561489 -230.85195353 65.99346634 -228.64477539 61.80029297 C-227.6224855 59.81484701 -226.8967288 57.80302819 -226.1875 55.6875 C-221.42599808 43.52967297 -213.37184843 31.78567943 -204.75 22.0625 C-204.10708008 21.32338379 -204.10708008 21.32338379 -203.45117188 20.56933594 C-151.85585657 -38.52488124 -62.74861057 -47.87065102 0 0 Z M-126.75 7.0625 C-127.78511719 7.3615625 -128.82023438 7.660625 -129.88671875 7.96875 C-158.66007481 17.25880218 -181.89355322 39.72043139 -195.75 66.0625 C-196.63054339 68.06340957 -197.38967398 70.0434387 -198.078125 72.1171875 C-198.75 74.0625 -198.75 74.0625 -199.671875 76.0703125 C-209.99434867 98.85915822 -208.62405002 125.34595585 -202.75 149.0625 C-202.49605469 150.14144531 -202.24210938 151.22039062 -201.98046875 152.33203125 C-194.46228481 178.81233428 -173.43199797 203.45719329 -149.8828125 216.890625 C-123.11455871 231.65838206 -91.57783269 237.31261569 -61.47753906 229.60400391 C-45.2268072 224.86813014 -29.85273705 216.74009664 -16.75 206.0625 C-15.85410156 205.33546875 -14.95820312 204.6084375 -14.03515625 203.859375 C7.57631547 185.34477057 22.49284998 157.50837419 25.25 129.0625 C27.38247479 95.34274243 18.16977066 65.76018505 -3.9375 40.0625 C-19.41837773 23.30265131 -39.66888857 10.96029363 -61.75 5.0625 C-62.84183594 4.76472656 -63.93367187 4.46695313 -65.05859375 4.16015625 C-85.50611232 -0.53519987 -106.83643224 0.85813028 -126.75 7.0625 Z " fill="#D81621" transform="translate(716.75,540.9375)"/>
<path d="M0 0 C1.42969871 -0.02207209 2.85949688 -0.03775753 4.28930664 -0.05078125 C5.08550919 -0.06020752 5.88171173 -0.06963379 6.70204163 -0.0793457 C16.67140614 0.26488431 24.86683431 6.68312968 32 13 C32.83660156 13.639375 33.67320312 14.27875 34.53515625 14.9375 C45.15789898 23.82626095 51.67451457 38.40481839 53 52 C53.22854531 55.84192544 53.43293693 59.6728111 53.55859375 63.51953125 C54.20293317 68.60011908 55.76399248 71.88457858 59.5625 75.3125 C63.15264135 77.79798247 64.96499599 78.1259264 69.30218792 78.13142776 C70.43395669 78.13526891 71.56572545 78.13911005 72.73179024 78.1430676 C73.98574792 78.14220112 75.23970559 78.14133463 76.53166199 78.14044189 C77.86896024 78.1430242 79.20625772 78.14603699 80.54355413 78.1494453 C84.23103648 78.15753458 87.9184994 78.15930594 91.60598958 78.16004276 C95.57818256 78.16189001 99.55036537 78.16943576 103.52255249 78.17617798 C112.21477422 78.18977627 120.90699135 78.19578856 129.59922194 78.20018864 C135.02492798 78.20294896 140.45063222 78.20718597 145.87633705 78.21169281 C160.89282081 78.22388823 175.90930313 78.23418648 190.92579174 78.2375679 C191.88743422 78.23778747 192.8490767 78.23800703 193.83985986 78.23823325 C195.28582038 78.23856067 195.28582038 78.23856067 196.76099223 78.2388947 C198.71444078 78.23933817 200.66788934 78.23978473 202.62133789 78.24023438 C204.07481183 78.24056652 204.07481183 78.24056652 205.55764887 78.24090537 C221.25677372 78.24485291 236.95585213 78.26230436 252.65495905 78.2855939 C268.76564481 78.3093014 284.87630728 78.32176951 300.98701078 78.32293582 C310.03548129 78.32385301 319.08389133 78.3296161 328.1323452 78.34775543 C335.838152 78.36314842 343.54387965 78.36828169 351.2496989 78.36001733 C355.18168202 78.35610775 359.11350573 78.35705527 363.04546928 78.37107468 C366.64615527 78.38379549 370.24656178 78.38263226 373.84724728 78.37048396 C375.76467355 78.36759621 377.68210457 78.37947667 379.59949273 78.39190602 C385.82673141 78.35606023 390.55334236 78.14088405 396 75 C400.68283234 70.19393523 401.05302878 66.45521705 401.23876953 59.90893555 C401.80479034 41.89560438 407.69765366 26.33857211 420.65991211 13.54980469 C429.94295703 4.9710819 440.31819155 -0.07037218 453 0 C453.0932449 8.13725638 453.16403796 16.27428443 453.20724869 24.41194534 C453.22800211 28.19181627 453.25609088 31.97131802 453.30175781 35.75097656 C453.34565913 39.40796209 453.36922881 43.06459565 453.37950897 46.72182465 C453.38682192 48.10750611 453.40109905 49.49317132 453.42292023 50.87870026 C453.64972643 65.8957637 450.09686702 76.96763838 440.0390625 88.1875 C430.85407015 97.20176759 419.83694575 100.75425623 407.21517968 100.78847414 C405.75796964 100.77343735 404.30076539 100.75783086 402.84356689 100.74171448 C401.25880281 100.74649047 399.67404489 100.75389285 398.08930373 100.76366371 C393.77313391 100.78274664 389.45781957 100.76482538 385.14170671 100.74037087 C380.47229892 100.72051534 375.80298039 100.73551201 371.13356018 100.74601746 C362.0025883 100.76109326 352.87194404 100.74428322 343.7410129 100.71646655 C333.10032936 100.68522233 322.45971551 100.68552753 311.81899473 100.68698429 C292.83189762 100.68848407 273.84495245 100.66105582 254.85791016 100.61743164 C236.44544711 100.5751497 218.03311773 100.55392053 199.62060547 100.5559082 C198.48591832 100.55602807 197.35123118 100.55614794 196.18215957 100.55627144 C194.48303063 100.55645304 194.48303063 100.55645304 192.74957585 100.5566383 C171.76571799 100.55870902 150.78191674 100.54103397 129.79807724 100.51417865 C122.38519144 100.50514019 114.97231606 100.50194126 107.55942535 100.50058174 C98.52583789 100.49853301 89.49234593 100.48510612 80.45879897 100.45758332 C75.8519734 100.44375673 71.24526973 100.43458273 66.63842201 100.43836594 C62.41815108 100.4416636 58.19814929 100.43102016 53.97793445 100.40942036 C52.45464152 100.40400446 50.93132067 100.40356593 49.40802684 100.40872223 C34.96081801 100.45219597 23.10776503 97.86800522 12.25 87.75 C1.50191042 76.19073384 -0.47594506 63.44274258 -0.29296875 48.14453125 C-0.28735858 46.74778199 -0.28309522 45.35102674 -0.28010559 43.95426941 C-0.26876832 40.31610191 -0.23940038 36.67830603 -0.20599365 33.0402832 C-0.17504972 29.31271387 -0.16154883 25.58508322 -0.14648438 21.85742188 C-0.11451713 14.57144699 -0.06345968 7.28577599 0 0 Z " fill="#F8F8F8" transform="translate(400,923)"/>
<path d="M0 0 C1.07943375 -0.00571014 2.15886749 -0.01142029 3.27101135 -0.01730347 C4.45547348 -0.01842133 5.63993561 -0.01953918 6.86029053 -0.02069092 C8.73139748 -0.02813828 8.73139748 -0.02813828 10.64030457 -0.03573608 C14.0640571 -0.04784719 17.48774854 -0.05530375 20.91151524 -0.05974674 C23.05186031 -0.06267932 25.19220004 -0.06678452 27.33254242 -0.07125092 C34.0329089 -0.0849251 40.73326316 -0.09459159 47.43364263 -0.09845281 C55.16102885 -0.10293058 62.88823793 -0.12046564 70.61557031 -0.1494534 C76.59276447 -0.1710951 82.56990888 -0.18115845 88.54714179 -0.18249393 C92.11493476 -0.18354037 95.68256119 -0.18941353 99.25031281 -0.20731354 C103.23364428 -0.22690953 107.21675582 -0.2224953 111.20013428 -0.21600342 C112.37649948 -0.2252182 113.55286469 -0.23443298 114.76487732 -0.243927 C121.86562753 -0.20767075 126.86904961 0.38650312 132.78509521 4.54278564 C136.26694569 8.25109794 137.2302385 11.09559874 137.41400146 16.20294189 C137.05915152 22.66282382 135.22715239 25.92487873 130.45172119 30.26434326 C125.49314584 33.45544994 119.48940843 32.69536256 113.81048584 32.65802002 C112.50251541 32.6650293 111.19454498 32.67203857 109.84693909 32.67926025 C106.27040754 32.69744895 102.69433909 32.69044489 99.11779976 32.67774391 C95.3689871 32.66759295 91.6202132 32.67701539 87.87139893 32.68328857 C81.5767711 32.69055891 75.28233121 32.68099352 68.98773193 32.66192627 C61.71783242 32.64015854 54.44838167 32.64721035 47.17849302 32.66923189 C40.92860949 32.68740351 34.67886079 32.68993566 28.42895937 32.67947721 C24.69971139 32.6732519 20.97067413 32.67237994 17.24143982 32.68562317 C13.0831967 32.69935931 8.92572312 32.68030341 4.76751709 32.65802002 C2.92048943 32.67016541 2.92048943 32.67016541 1.03614807 32.68255615 C-5.31640674 32.61945345 -9.45205725 32.54445718 -14.21099854 28.14044189 C-17.88681448 23.30384197 -18.87012493 19.57341842 -18.59381104 13.50372314 C-17.76855268 8.40901594 -15.13744425 5.84000294 -11.14849854 2.82794189 C-7.21047183 0.56567123 -4.4636373 0.01413386 0 0 Z " fill="#D81722" transform="translate(565.2109985351563,642.8595581054688)"/>
<path d="M0 0 C16.5 0 33 0 50 0 C50 16.5 50 33 50 50 C33.5 50 17 50 0 50 C0 33.5 0 17 0 0 Z " fill="#F2F2F2" transform="translate(886,348)"/>
<path d="M0 0 C16.17 0 32.34 0 49 0 C49 16.5 49 33 49 50 C32.83 50 16.66 50 0 50 C0 33.5 0 17 0 0 Z " fill="#F2F2F2" transform="translate(318,348)"/>
<path d="M0 0 C1.25159912 0.00523682 2.50319824 0.01047363 3.79272461 0.01586914 C4.78942421 0.01799156 4.78942421 0.01799156 5.80625916 0.02015686 C7.93590735 0.02577021 10.06545175 0.03832485 12.19506836 0.05102539 C13.63582205 0.05603868 15.07657739 0.06060188 16.51733398 0.06469727 C20.05581794 0.07489463 23.59407649 0.09446709 27.13256836 0.11352539 C27.13256836 6.05352539 27.13256836 11.99352539 27.13256836 18.11352539 C75.31256836 18.44352539 123.49256836 18.77352539 173.13256836 19.11352539 C173.13256836 19.44352539 173.13256836 19.77352539 173.13256836 20.11352539 C46.74256836 20.11352539 -79.64743164 20.11352539 -209.86743164 20.11352539 C-209.86743164 19.78352539 -209.86743164 19.45352539 -209.86743164 19.11352539 C-107.89743164 18.61852539 -107.89743164 18.61852539 -3.86743164 18.11352539 C-3.86743164 12.50352539 -3.86743164 6.89352539 -3.86743164 1.11352539 C-2.86743164 0.11352539 -2.86743164 0.11352539 0 0 Z " fill="#EEEDED" transform="translate(645.867431640625,1002.886474609375)"/>
<path d="M0 0 C0.33 0 0.66 0 1 0 C1.01030746 1.09580887 1.02061493 2.19161774 1.03123474 3.32063293 C1.12889153 13.63577215 1.23161829 23.95085 1.33933926 34.26588917 C1.39455896 39.56924665 1.44797751 44.87260966 1.49731445 50.17602539 C1.54497196 55.29185025 1.59731539 60.40760746 1.65294075 65.52335167 C1.673358 67.4774069 1.69207212 69.43148068 1.70907402 71.38556862 C1.73313189 74.11754703 1.76318469 76.84939744 1.79467773 79.58129883 C1.8004332 80.39337799 1.80618866 81.20545715 1.81211853 82.04214478 C1.85467528 85.27915011 1.96924104 87.90772312 3 91 C2.0625 93.1875 2.0625 93.1875 1 95 C0.34 94.67 -0.32 94.34 -1 94 C-0.67 62.98 -0.34 31.96 0 0 Z " fill="#E8E8E8" transform="translate(969,327)"/>
<path d="M0 0 C0.33 0 0.66 0 1 0 C1 20.46 1 40.92 1 62 C2.65 62 4.3 62 6 62 C5.67 62.99 5.34 63.98 5 65 C3.35 65 1.7 65 0 65 C0 43.55 0 22.1 0 0 Z " fill="#EAEAEC" transform="translate(400,826)"/>
<path d="M0 0 C0.33 0 0.66 0 1 0 C1 9.24 1 18.48 1 28 C0.34 28 -0.32 28 -1 28 C-1 30.31 -1 32.62 -1 35 C-1.33 35 -1.66 35 -2 35 C-2.22082273 23.13332646 -2.20337033 11.70540485 0 0 Z " fill="#DF575F" transform="translate(479,632)"/>
<path d="M0 0 C0.33 0.66 0.66 1.32 1 2 C1.99 1.79375 2.98 1.5875 4 1.375 C8.37837888 0.72137698 11.79347412 1.74542211 16 3 C15.67 3.66 15.34 4.32 15 5 C13.2365625 4.7834375 13.2365625 4.7834375 11.4375 4.5625 C10.77621094 4.48128906 10.11492188 4.40007813 9.43359375 4.31640625 C7.56626116 4.07362304 5.70360682 3.79463078 3.84375 3.5 C-0.74914149 2.9025507 -5.31348399 2.65199808 -9.9375 2.4375 C-11.24944336 2.37272461 -11.24944336 2.37272461 -12.58789062 2.30664062 C-14.72511995 2.20153099 -16.86254238 2.10036015 -19 2 C-19 1.67 -19 1.34 -19 1 C-12.73 0.67 -6.46 0.34 0 0 Z " fill="#DA3940" transform="translate(639,541)"/>
<path d="M0 0 C1.24394531 0.00322266 2.48789062 0.00644531 3.76953125 0.00976562 C5.05472656 0.01814453 6.33992187 0.02652344 7.6640625 0.03515625 C8.97246094 0.03966797 10.28085937 0.04417969 11.62890625 0.04882812 C14.84900531 0.06058031 18.0690102 0.07701082 21.2890625 0.09765625 C21.2890625 0.42765625 21.2890625 0.75765625 21.2890625 1.09765625 C20.07790771 1.12738525 20.07790771 1.12738525 18.84228516 1.15771484 C15.19920375 1.25271524 11.55671564 1.36249537 7.9140625 1.47265625 C6.64304687 1.50359375 5.37203125 1.53453125 4.0625 1.56640625 C2.85078125 1.60507812 1.6390625 1.64375 0.390625 1.68359375 C-1.29039307 1.7307251 -1.29039307 1.7307251 -3.00537109 1.77880859 C-5.85804162 1.83176828 -5.85804162 1.83176828 -7.7109375 4.09765625 C-9.0309375 4.09765625 -10.3509375 4.09765625 -11.7109375 4.09765625 C-12.0409375 3.10765625 -12.3709375 2.11765625 -12.7109375 1.09765625 C-8.41488018 0.27543071 -4.37127147 -0.0200517 0 0 Z " fill="#F4D2D3" transform="translate(617.7109375,542.90234375)"/>
<path d="M0 0 C0.66 0 1.32 0 2 0 C1.28547412 4.76350585 0.20465156 9.34201396 -1 14 C-1.33 14 -1.66 14 -2 14 C-2.05437607 12.41705218 -2.09296271 10.83355744 -2.125 9.25 C-2.14820313 8.36828125 -2.17140625 7.4865625 -2.1953125 6.578125 C-1.99139502 3.8864142 -1.36551721 2.30095026 0 0 Z " fill="#F2E7E5" transform="translate(736,685)"/>
<path d="M0 0 C0.33 0 0.66 0 1 0 C2.87443946 8.4690583 2.87443946 8.4690583 0.73046875 12.22265625 C-0.76943447 13.9333187 -2.28888404 15.50215357 -4 17 C-4.66 16.67 -5.32 16.34 -6 16 C-5.360625 15.21625 -4.72125 14.4325 -4.0625 13.625 C-1.47086848 10.32655988 -0.84708767 8.4708767 -0.4375 4.375 C-0.35371094 3.55773437 -0.26992188 2.74046875 -0.18359375 1.8984375 C-0.12300781 1.27195312 -0.06242188 0.64546875 0 0 Z " fill="#F7C7C9" transform="translate(702,656)"/>
<path d="M0 0 C1.9375 0.625 1.9375 0.625 4 2 C4.875 5 4.875 5 5 8 C4.34 8.66 3.68 9.32 3 10 C2.49596232 8.70990357 1.99690074 7.41786211 1.5 6.125 C1.2215625 5.40570312 0.943125 4.68640625 0.65625 3.9453125 C0 2 0 2 0 0 Z " fill="#F4E3E4" transform="translate(516,693)"/>
<path d="M0 0 C4.77577488 0.71636623 9.38211328 1.5911532 14 3 C14.33 3.99 14.66 4.98 15 6 C4.44191344 2.92482916 4.44191344 2.92482916 0 1 C0 0.67 0 0.34 0 0 Z " fill="#DB464E" transform="translate(659,547)"/>
<path d="M0 0 C4.37934119 0.51958285 8.68803391 1.05675742 13 2 C10.35261084 3.4606285 9.10551666 4 6 4 C6 3.34 6 2.68 6 2 C4.02 2.33 2.04 2.66 0 3 C0 2.01 0 1.02 0 0 Z " fill="#F1DEDD" transform="translate(642,544)"/>
<path d="M0 0 C0.93065133 2.60582371 1.14917407 3.64198224 0.0625 6.25 C-0.4634375 7.11625 -0.4634375 7.11625 -1 8 C-1.66 8 -2.32 8 -3 8 C-3.12375 8.804375 -3.2475 9.60875 -3.375 10.4375 C-3.58125 11.283125 -3.7875 12.12875 -4 13 C-4.99 13.495 -4.99 13.495 -6 14 C-4.45941767 8.98491285 -2.97068161 4.3852919 0 0 Z " fill="#F3CBCD" transform="translate(525,600)"/>
<path d="M0 0 C0.99 0 1.98 0 3 0 C1.66666667 3.33333333 0.33333333 6.66666667 -1 10 C-1.33 10 -1.66 10 -2 10 C-2.25 3.375 -2.25 3.375 0 0 Z " fill="#F2E0DE" transform="translate(730,702)"/>
<path d="M0 0 C1.60372657 4.00931642 0.38691773 7.05823382 -1 11 C-1.66 11.66 -2.32 12.32 -3 13 C-2.343621 8.51474352 -1.29925791 4.33085971 0 0 Z " fill="#D7525A" transform="translate(486,606)"/>
<path d="M0 0 C0.99 0 1.98 0 3 0 C5 3 5 3 4.625 5.1875 C4.41875 5.785625 4.2125 6.38375 4 7 C0 2.25 0 2.25 0 0 Z " fill="#DF1F2A" transform="translate(494,724)"/>
</svg>
